<?xml version="1.0" encoding="UTF-8"?>
<svg width="128px" height="128px" viewBox="0 0 128 128" version="1.1" xmlns="http://www.w3.org/2000/svg" xmlns:xlink="http://www.w3.org/1999/xlink">
    <title>icon/往来账款管理备份</title>
    <path d="M121.9275,91.3561652 C121.71,90.7472033 121.043,90.4427223 120.434,90.6602087 L111.56,93.8935067 L111.56,15.8593838 C111.56,10.4077245 107.152,6 101.7,6 L26.3,6 C20.848,6 16.44,10.4077245 16.44,15.8593838 L16.44,93.8935067 L7.5515,90.6602087 C7.421,90.6167115 7.2905,90.5877133 7.16,90.5877133 C6.522,90.5877133 6,91.1096806 6,91.7476408 L6,100.389101 C6,100.867571 6.3045,101.302544 6.7685,101.476533 L62.405,121.717268 C63.4345,122.094244 64.551,122.094244 65.5805,121.717268 L121.2315,101.491032 C121.6955,101.317043 122,100.88207 122,100.4036 L122,91.7621399 C122,91.6171489 121.971,91.4866571 121.9275,91.3561652 Z M63.5,111 L26,97.4659526 L26,16 L101,16 L101,97.4659526 L63.5,111 Z M84.8361099,36 L77.0049976,36 C76.5739272,36 76.1715948,36.24225 75.9847976,36.627 L63.8142432,60.681 L63.3400658,60.681 L51.1695114,36.627 C50.9683452,36.24225 50.5803818,36 50.1493114,36 L42.1457709,36 C41.9589738,36 41.7721766,36.04275 41.5997484,36.1425 C41.0393569,36.44175 40.8381907,37.14 41.13994,37.6815 L56.069345,64.9845 L47.8790073,64.9845 C47.2467707,64.9845 46.7294862,65.4975 46.7294862,66.1245 L46.7294862,69.98625 C46.7294862,70.61325 47.2467707,71.12625 47.8790073,71.12625 L58.7994575,71.12625 L58.7994575,76.68375 L47.8790073,76.68375 C47.2467707,76.68375 46.7294862,77.19675 46.7294862,77.82375 L46.7294862,81.6855 C46.7294862,82.3125 47.2467707,82.8255 47.8790073,82.8255 L58.7994575,82.8255 L58.7994575,91.86 C58.7994575,92.487 59.316742,93 59.9489786,93 L67.1191163,93 C67.7513529,93 68.2686374,92.487 68.2686374,91.86 L68.2686374,82.81125 L79.2321947,82.81125 C79.8644313,82.81125 80.3817157,82.29825 80.3817157,81.67125 L80.3817157,77.8095 C80.3817157,77.1825 79.8644313,76.6695 79.2321947,76.6695 L68.2686374,76.6695 L68.2686374,71.112 L79.2321947,71.112 C79.8644313,71.112 80.3817157,70.599 80.3817157,69.972 L80.3817157,66.11025 C80.3817157,65.48325 79.8644313,64.97025 79.2321947,64.97025 L70.9556429,64.97025 L85.8563099,37.66725 C85.9425239,37.49625 86,37.311 86,37.12575 C85.985631,36.513 85.4683465,36 84.8361099,36 Z" id="形状"></path>
</svg>