<?xml version="1.0" encoding="UTF-8"?>
<svg width="128px" height="128px" viewBox="0 0 128 128" version="1.1" xmlns="http://www.w3.org/2000/svg" xmlns:xlink="http://www.w3.org/1999/xlink">
    <title>icon/记账管理备份</title>
    <path d="M90.424375,9 C97.3546751,9.06050469 102.95482,14.8877799 103,22.0856667 L103,22.0856667 L103,48.4666667 L102.88125,48.4666667 C102.600292,49.9036998 101.383742,50.9364244 99.971875,50.9364244 C98.5600078,50.9364244 97.343458,49.9036998 97.0625,48.4666667 L97.0625,48.4666667 L97.0625,22.0856667 C97.0241917,18.2905915 94.0782569,15.2200071 90.424375,15.1666667 L90.424375,15.1666667 L20.528125,15.1666667 C16.8821374,15.2204571 13.9500855,18.2985972 13.9375,22.0856667 L13.9375,22.0856667 L13.9375,107.000667 C13.9570275,110.77062 16.8982419,113.819851 20.528125,113.833333 L20.528125,113.833333 L51.331875,113.833333 C52.9714704,113.833333 54.300625,115.213789 54.300625,116.916667 C54.300625,118.619545 52.9714704,120 51.331875,120 L51.331875,120 L20.528125,120 C13.6190758,119.986451 8.01959713,114.176365 8,107.000667 L8,107.000667 L8,22.0856667 C8.01283384,14.8930067 13.6029439,9.05411877 20.528125,9 L20.528125,9 Z M114.661041,49.3685674 L114.9917,49.3794876 C118.080511,49.531521 120.963519,51.073867 122.96404,53.6445683 L122.96404,53.6445683 L124.83672,55.9473217 C126.991304,58.4314491 128.128493,61.7797836 127.988439,65.2272308 C127.848385,68.674678 126.443055,71.9266465 124.093569,74.2400613 L124.093569,74.2400613 L79.8189689,118.125625 C78.9590977,118.827049 77.8833319,119.124603 76.8309347,118.952107 L76.8309347,118.952107 L64.5065865,118.219478 C63.3515543,118.167779 62.2675053,117.612381 61.4940842,116.676061 C60.7237425,115.756815 60.3219655,114.534108 60.3778044,113.278946 L60.3778044,113.278946 L61.0157957,99.6045541 C61.0671918,98.5069694 61.5371892,97.4793778 62.310285,96.774464 L62.310285,96.774464 L106.63323,52.8410318 C108.880243,50.4793249 111.902884,49.2275588 114.9917,49.3794876 Z M66.5023451,101.819097 L65.9558931,112.222525 L75.3940094,112.716042 L66.5023451,101.819097 Z M104.571248,63.3038034 L70.3886727,97.1968803 L80.2849051,109.255069 L114.476927,75.4002831 L104.571248,63.3038034 Z M114.669976,55.6922361 C113.09776,55.6100255 111.561206,56.2675415 110.444509,57.5003814 L110.444509,57.5003814 L108.849783,59.0674675 L118.743376,71.1759143 L120.338762,69.5962636 C121.54705,68.3902509 122.256252,66.6964767 122.300155,64.9118981 C122.344059,63.1273196 121.718806,61.4088108 120.570932,60.159126 L120.570932,60.159126 L118.682865,57.9311623 C117.701443,56.5886125 116.242191,55.7744468 114.669976,55.6922361 Z M66.4632191,56.9136538 C67.571567,56.759184 68.6613126,57.3226638 69.2600745,58.3598367 C69.8588363,59.3970097 69.8588363,60.7211832 69.2600745,61.7583562 C68.6613126,62.7955291 67.571567,63.3590089 66.4632191,63.2045391 L66.4632191,63.2045391 L35.260962,63.2045391 C34.1526141,63.3590089 33.0628684,62.7955291 32.4641066,61.7583562 C31.8653448,60.7211832 31.8653448,59.3970097 32.4641066,58.3598367 C33.0628684,57.3226638 34.1526141,56.759184 35.260962,56.9136538 L35.260962,56.9136538 Z M79.0493881,33.00829 C80.7485466,32.878612 82.2225972,34.2856337 82.344676,36.1537326 C82.2225972,38.0218316 80.7485466,39.4288533 79.0493881,39.2991752 L79.0493881,39.2991752 L35.260962,39.2991752 C33.5769345,39.4003459 32.1281798,38.0029132 32,36.1537326 C32.1281798,34.3045521 33.5769345,32.9071194 35.260962,33.00829 L35.260962,33.00829 Z" id="形状结合" stroke="#555555" stroke-width="2.3"></path>
</svg>