<?xml version="1.0" encoding="UTF-8"?>
<svg width="11px" height="11px" viewBox="0 0 11 11" version="1.1" xmlns="http://www.w3.org/2000/svg" xmlns:xlink="http://www.w3.org/1999/xlink">
    <title>展开</title>
    <g id="页面-1" stroke="none" stroke-width="1" fill="none" fill-rule="evenodd">
        <g id="往来账款信息管理2" transform="translate(-1767.000000, -145.000000)" fill-rule="nonzero">
            <g id="展开" transform="translate(1767.000000, 145.000000)">
                <rect id="矩形" fill="#000000" opacity="0" x="0" y="0" width="11" height="11"></rect>
                <path d="M4.50381863,5.84247309 C4.70838013,6.00772878 4.98771428,6.04622282 5.22941465,5.9424649 C5.27505639,5.92858088 5.3175503,5.90593793 5.35451741,5.87580369 L9.74145429,1.97612313 C9.89584807,1.88913825 9.99379869,1.72813923 10,1.55115794 C9.99572814,1.40138873 9.92553635,1.26113195 9.80817577,1.16785602 C9.55186148,0.955372064 9.18043053,0.955372064 8.92411625,1.16785602 L4.99588949,4.70089993 L1.06766275,1.16785602 C0.815379903,0.950491495 0.443913441,0.943489023 0.183603223,1.15119071 C0.0677605944,1.2411724 0,1.37955854 0,1.52616 C0,1.67276145 0.0677605944,1.81114759 0.183603223,1.90112928 L4.50381863,5.84247309 Z" id="路径" fill="#606266"></path>
                <path d="M8.92394299,5.17574102 L4.9957925,8.68638168 L1.06764202,5.15910292 C0.811332708,4.94696569 0.439908962,4.94696569 0.183599653,5.15910292 C0.0677592764,5.24893778 0,5.3870981 0,5.53346033 C0,5.67982257 0.0677592764,5.81798289 0.183599653,5.90781775 L4.52875125,9.84273014 C4.73330879,10.0077162 5.0126375,10.0461474 5.25433319,9.94255878 C5.29997404,9.92869742 5.34246713,9.90609142 5.37943353,9.87600635 L9.76628523,5.98268923 C9.91614174,5.88663385 10.0047178,5.71939363 9.99980586,5.54177939 C9.99553408,5.39225456 9.92534365,5.25222665 9.80798535,5.15910292 C9.54768019,4.95174016 9.17622094,4.9587312 8.92394299,5.17574102 L8.92394299,5.17574102 Z" id="路径" fill="#606266"></path>
            </g>
        </g>
    </g>
</svg>