<?xml version="1.0" encoding="UTF-8"?>
<svg width="16px" height="18px" viewBox="0 0 16 18" version="1.1" xmlns="http://www.w3.org/2000/svg" xmlns:xlink="http://www.w3.org/1999/xlink">
    <title>icon/建档管理</title>
    <g id="页面-1">
        <g id="平台方首页" transform="translate(-45.000000, -141.000000)">
            <g id="编组" transform="translate(41.000000, 138.000000)">
                <rect id="矩形" opacity="0" x="0" y="0" width="24" height="24"></rect>
                <path d="M16,14 C16.33,14 16.6,14.267 16.6,14.6 L16.6,14.6 L16.6,16.4 L18.4,16.4 C18.73,16.4 19,16.67 19,17 C19,17.33 18.73,17.6 18.4,17.6 L18.4,17.6 L16.6,17.6 L16.6,19.4 C16.6,19.73 16.33,20 16,20 C15.67,20 15.4,19.733 15.4,19.4 L15.4,19.4 L15.4,17.6 L13.6,17.6 C13.27,17.6 13,17.33 13,17 C13,16.67 13.27,16.4 13.6,16.4 L13.6,16.4 L15.4,16.4 L15.4,14.6 C15.4,14.27 15.67,14 16,14 Z M15.5,4 C17.43375,4 19,5.53428571 19,7.42857143 L19,7.42857143 L19,14.2514286 L17.8333333,14.2514286 L17.8333333,7.42857143 C17.8333333,6.16857143 16.78625,5.14285714 15.5,5.14285714 L15.5,5.14285714 L11,5.142 L11,7.6 C11,8.87075 10.0136354,9.9100625 8.76437804,9.99446571 L8.6,10 L6.166,10 L6.16666667,16.5714286 C6.16666667,17.7789286 7.12831091,18.7712599 8.34052285,18.8518578 L8.5,18.8571429 L13.1666667,18.8571429 L13.1666667,20 L8.5,20 C6.56625,20 5,18.4657143 5,16.5714286 L5,16.5714286 L5,8.57142857 L9.66666667,4 Z M9.8,5.71 L6.707,8.8 L8.6,8.8 C9.263,8.8 9.8,8.263 9.8,7.6 L9.8,7.6 L9.8,5.71 Z" id="形状结合"></path>
            </g>
        </g>
    </g>
</svg>