<?xml version="1.0" encoding="UTF-8"?>
<svg width="61px" height="61px" viewBox="0 0 61 61" version="1.1" xmlns="http://www.w3.org/2000/svg" xmlns:xlink="http://www.w3.org/1999/xlink">
    <title>编组 5</title>
    <g id="页面-1" stroke="none" stroke-width="1" fill="none" fill-rule="evenodd">
        <g id="首页备份" transform="translate(-958.000000, -194.000000)">
            <g id="编组-3" transform="translate(643.000000, 124.000000)">
                <g id="编组-5" transform="translate(315.000000, 70.000000)">
                    <circle id="椭圆形备份" fill="#009A43" opacity="0.212177095" cx="30.5" cy="30.5" r="30.5"></circle>
                    <g id="提款" transform="translate(19.000000, 18.000000)" fill-rule="nonzero">
                        <rect id="矩形" fill="#000000" opacity="0" x="0" y="0" width="24" height="24"></rect>
                        <path d="M15.7082128,5.87199475 C16.1878584,5.23735545 16.4670799,4.53837734 16.4670799,3.87913308 C16.4670799,2.80383265 15.8216848,1 11.5002772,1 C9.64489906,1 6.53287391,1.37404711 6.53287391,3.87913308 C6.53287391,4.53837734 6.81207233,5.23735545 7.29174104,5.87199475 C4.12459695,7.98729486 2,12.041837 2,14.4652505 C2,19.0420325 5.72882127,22 11.5002772,22 C17.2711556,22 21,19.0420325 21,14.4652505 C21,12.0418136 18.8753337,7.98675538 15.7082128,5.87199475 Z M11.5002541,20.5618173 C7.03506607,20.5618173 3.41581274,18.6142251 3.41581274,14.465227 C3.41581274,12.096043 6.21068457,7.33977842 9.87951259,6.18791878 C8.757706,5.62819681 7.94873285,4.60325564 7.94873285,3.87913308 C7.94873285,2.83742113 9.53863456,2.4381592 11.5002772,2.4381592 C13.4613192,2.4381592 15.0512209,2.83737422 15.0512209,3.87913308 C15.0512209,4.60323219 14.2428253,5.62822026 13.1204412,6.18791878 C16.7892923,7.33980188 19.584118,12.096043 19.584118,14.465227 C19.584118,18.6142251 15.9647953,20.5618173 11.5002541,20.5618173 Z M13.7421809,12.9739173 C14.133165,12.9739173 14.4499025,12.6518479 14.4499025,12.2548612 C14.4499025,11.8584139 14.1331881,11.5362976 13.7421809,11.5362976 L12.7657719,11.5362976 L13.8507093,10.4347269 C14.1271125,10.1540332 14.1271125,9.69887647 13.8507093,9.41815936 C13.5741906,9.1374657 13.1259392,9.1374657 12.8494898,9.41815936 L11.5084781,10.7797359 L10.1675125,9.41818281 C9.89103998,9.1374657 9.44329683,9.1374657 9.1663161,9.41818281 C8.88984359,9.69885302 8.88984359,10.1540332 9.1663161,10.4347269 L10.2512073,11.5362976 L9.25828109,11.5362976 C8.86729704,11.5362976 8.55007441,11.8583905 8.55007441,12.2548612 C8.55007441,12.6518479 8.86729704,12.9739173 9.25828109,12.9739173 L10.7920243,12.9739173 L10.7920243,13.7573358 L9.19440689,13.7573358 C8.80339973,13.7573358 8.48673153,14.0793817 8.48673153,14.4758759 C8.48673153,14.8728391 8.80339973,15.194932 9.19440689,15.194932 L10.7920243,15.194932 L10.7920243,16.5682598 C10.7920243,16.9647071 11.109247,17.2867999 11.5002541,17.2867999 C11.8912151,17.2867999 12.2078833,16.9647071 12.2078833,16.5682598 L12.2078833,15.194932 L13.6782605,15.194932 C14.0692677,15.194932 14.3864903,14.8728391 14.3864903,14.4758759 C14.3864903,14.0794052 14.0692677,13.7573358 13.6782836,13.7573358 L12.2079064,13.7573358 L12.2079064,12.9739173 L13.7421809,12.9739173 L13.7421809,12.9739173 Z" id="形状" fill="#009B44"></path>
                    </g>
                </g>
            </g>
        </g>
    </g>
</svg>