<?xml version="1.0" encoding="UTF-8"?>
<svg width="61px" height="61px" viewBox="0 0 61 61" version="1.1" xmlns="http://www.w3.org/2000/svg" xmlns:xlink="http://www.w3.org/1999/xlink">
    <title>数据</title>
    <g id="页面-1" stroke="none" stroke-width="1" fill="none" fill-rule="evenodd">
        <g id="首页备份" transform="translate(-538.000000, -194.000000)">
            <g id="编组-4" transform="translate(224.000000, 124.000000)">
                <g id="数据" transform="translate(314.000000, 70.000000)">
                    <circle id="椭圆形" fill="#006BFF" opacity="0.201302665" cx="30.5" cy="30.5" r="30.5"></circle>
                    <rect id="矩形" fill="#000000" fill-rule="nonzero" opacity="0" x="15" y="14" width="32" height="32"></rect>
                    <path d="M41.2160338,38.4574514 L21.8708842,38.4574514 C21.1514381,38.4566009 20.5685083,37.8828783 20.5679324,37.1750793 L20.5679324,22.7712743 C20.5679324,22.3453113 20.2169388,22 19.7839662,22 C19.3509936,22 19,22.3453113 19,22.7712743 L19,37.1750793 C19.0005767,38.7348041 20.2854931,39.9991487 21.8708842,40 L41.2160338,40 C41.6490064,40 42,39.6546887 42,39.2287257 C42,38.8027626 41.6490064,38.4574514 41.2160338,38.4574514 L41.2160338,38.4574514 Z" id="路径" fill="#004099" fill-rule="nonzero"></path>
                    <path d="M28.5842766,25.0759139 C28.3229983,25.0323104 28.0557307,25.1125469 27.8686222,25.2907608 L23.2383978,29.6780771 C22.9184517,29.9807219 22.9217221,30.4682588 23.241123,30.7709036 C23.5627042,31.0756142 24.0766891,31.0745813 24.394455,30.7734859 L28.5842766,26.8034682 L32.7740983,30.7734859 C32.9454063,30.936205 33.1843921,31.01803 33.4259041,30.9966541 C33.6674162,30.9752782 33.8862745,30.85293 34.0228145,30.6629637 C34.089856,30.6278446 34.1525371,30.5834291 34.2092226,30.5297174 L40.7585782,24.3239502 C40.9128038,24.1790423 40.9996923,23.9818512 41,23.7760514 C41.0003061,23.5702516 40.9140062,23.3728287 40.7602134,23.2275084 C40.6068265,23.0816845 40.3984237,22.9998065 40.1811406,23 C39.9638575,23.0001942 39.7556178,23.082444 39.602521,23.2285413 L33.3633005,29.1404436 L29.2999311,25.2907608 C29.1127172,25.1127339 28.8454638,25.0326946 28.5842766,25.0764304 L28.5842766,25.0759139 Z" id="路径" fill="#004099" fill-rule="nonzero"></path>
                </g>
            </g>
        </g>
    </g>
</svg>