<?xml version="1.0" encoding="UTF-8"?>
<svg width="61px" height="61px" viewBox="0 0 61 61" version="1.1" xmlns="http://www.w3.org/2000/svg" xmlns:xlink="http://www.w3.org/1999/xlink">
    <title>编组 6</title>
    <g id="页面-1" stroke="none" stroke-width="1" fill="none" fill-rule="evenodd">
        <g id="首页备份" transform="translate(-1376.000000, -194.000000)">
            <g id="编组-2" transform="translate(1061.000000, 124.000000)">
                <g id="编组-6" transform="translate(315.000000, 70.000000)">
                    <circle id="椭圆形备份-2" fill="#FF6864" opacity="0.190801711" cx="30.5" cy="30.5" r="30.5"></circle>
                    <g id="订货规模" transform="translate(18.000000, 18.000000)" fill-rule="nonzero">
                        <rect id="矩形" fill="#FF6764" opacity="0" x="0" y="0" width="24" height="24"></rect>
                        <g id="编组" transform="translate(2.000000, 2.000000)" fill="#FF6361">
                            <path d="M19.3710751,8.7674067 L10.5335504,17.8087362 C10.3787251,17.9544377 10.2912187,18.1601193 10.292534,18.3752046 L10.309419,21.0548468 C10.3115413,21.3007813 10.4095603,21.5356937 10.5817507,21.707517 C10.7547775,21.8826466 10.9889333,21.9801371 11.2324547,21.9784367 L13.8328608,21.9956771 C14.0561286,22.0186398 14.2791184,21.9494767 14.4522347,21.8035704 L23.2801193,12.7720925 C23.7487523,12.2958417 24.0084212,11.6457699 23.9997916,10.9704186 C23.9911619,10.2950672 23.7149712,9.65214644 23.234329,9.1885637 L22.8149864,8.75755508 C22.3657933,8.27547375 21.7423391,8.00343971 21.0909568,8.00529354 C20.4395745,8.00716638 19.8176202,8.28276303 19.3710751,8.7674067 L19.3710751,8.7674067 Z M13.4617185,20.7913158 L11.4710462,20.7913158 L11.4710462,18.7520293 L13.4617185,20.7913158 Z M21.2701668,13.0971962 L14.4522347,20.0647584 L12.237431,17.8087362 L19.0529531,10.8337852 L21.2701668,13.0971962 Z M22.3835937,10.0555068 C22.6388454,10.2880665 22.7893483,10.6176157 22.7998303,10.9669205 C22.8103123,11.3162253 22.6798518,11.6545799 22.4390241,11.9026866 L22.1209021,12.2277902 L19.9060984,9.96191632 L20.2242204,9.63927558 C20.4454863,9.38686083 20.7614215,9.24262087 21.0930308,9.24262087 C21.42464,9.24262087 21.7405752,9.38686083 21.9618411,9.63927558 L22.3835937,10.0555068 Z M13.9099813,5.00162279 L4.68685425,5.00162279 C4.33214866,4.98181844 4.02699842,5.25536864 4,5.61734939 C4.02699842,5.97933015 4.33214866,6.25288035 4.68685425,6.233076 L13.9099813,6.233076 C14.2678739,6.25846073 14.5783522,5.98303346 14.6040656,5.61734939 C14.5783522,5.25166533 14.2678739,4.97623806 13.9099813,5.00162279 L13.9099813,5.00162279 Z M11.2589649,9.68114499 L4.68685425,9.68114499 C4.45340367,9.6509072 4.22387127,9.76120948 4.09775446,9.96423814 C3.97163766,10.1672668 3.97163766,10.4264764 4.09775446,10.629505 C4.22387127,10.8325337 4.45340367,10.942836 4.68685425,10.9125982 L11.2589649,10.9125982 C11.4924155,10.942836 11.7219479,10.8325337 11.8480647,10.629505 C11.9741815,10.4264764 11.9741815,10.1672668 11.8480647,9.96423814 C11.7219479,9.76120948 11.4924155,9.6509072 11.2589649,9.68114499 L11.2589649,9.68114499 Z" id="形状"></path>
                            <path d="M16.484875,0 L2.505625,0 C1.12058879,0.0107262423 0.00256676734,1.1679833 0,2.59355556 L0,19.4235556 C0.00391942613,20.845766 1.12381516,21.9973147 2.505625,22 L8.666375,22 C8.99429407,22 9.260125,21.7263962 9.260125,21.3888889 C9.260125,21.0513815 8.99429407,20.7777778 8.666375,20.7777778 L2.505625,20.7777778 C1.77964839,20.7751056 1.19140549,20.1707535 1.1875,19.4235556 L1.1875,2.59355556 C1.19001709,1.84296522 1.77642747,1.2328834 2.505625,1.22222222 L16.484875,1.22222222 C17.2156514,1.2327942 17.8048383,1.84137849 17.8125,2.59355556 L17.8125,7.82222222 C17.8686916,8.1070396 18.1120016,8.31172376 18.394375,8.31172376 C18.6767484,8.31172376 18.9200584,8.1070396 18.97625,7.82222222 L19,7.82222222 L19,2.59355556 C18.990964,1.16694738 17.870935,0.0119919202 16.484875,0 Z" id="路径"></path>
                        </g>
                    </g>
                </g>
            </g>
        </g>
    </g>
</svg>