<?xml version="1.0" encoding="UTF-8"?>
<svg width="61px" height="61px" viewBox="0 0 61 61" version="1.1" xmlns="http://www.w3.org/2000/svg" xmlns:xlink="http://www.w3.org/1999/xlink">
    <title>编组 7</title>
    <g id="页面-1" stroke="none" stroke-width="1" fill="none" fill-rule="evenodd">
        <g id="首页备份" transform="translate(-1795.000000, -194.000000)">
            <g id="编组-2备份" transform="translate(1480.000000, 124.000000)">
                <g id="编组-7" transform="translate(315.000000, 70.000000)">
                    <circle id="椭圆形备份-2" fill="#FD7727" opacity="0.190801711" cx="30.5" cy="30.5" r="30.5"></circle>
                    <g id="订货规模" transform="translate(18.000000, 18.000000)" fill-rule="nonzero">
                        <rect id="矩形" fill="#000000" opacity="0" x="0" y="0" width="24" height="24"></rect>
                        <path d="M4.86930091,23 C3.23355623,23 2,21.75348 2,20.1005473 L2,5.79902766 C2,4.98754794 2.28960486,4.2492274 2.81544073,3.72010787 C3.33738602,3.19490322 4.07173252,2.89908564 4.88328267,2.88734102 L7.00911854,2.88734102 L7.00911854,1.44373168 L7.87234043,1.44373168 C8.20024316,1.44373168 8.45920973,1.44373168 8.69337386,1.43125303 L8.69386018,1.43125303 C8.79927052,1.43125303 8.94042553,1.37387567 9.01604863,1.29778033 C9.46978723,0.769639523 10.0355015,0.403476577 10.7033435,0.202961686 C10.8559271,0.148275807 11.0392705,0.0992175574 11.2395137,0.0588454317 L11.2470517,0.0573773544 L11.2542249,0.0549305589 C11.2905775,0.0426965814 11.3303343,0.0341327972 11.3716717,0.0248349743 C11.4055927,0.0172499082 11.4404863,0.00954250243 11.4755015,0 L12.4807295,0 C12.5196353,0.0218988197 12.5575684,0.0300955846 12.5851672,0.0360902336 C12.5942857,0.03804767 12.6031611,0.039638087 12.6120365,0.0426965814 L12.6213982,0.0458774155 L12.6312462,0.0474678326 C13.5894225,0.202227648 14.3213374,0.585151143 14.8688146,1.21813714 C15.0012158,1.36616827 15.1452888,1.4314977 15.337386,1.4314977 L15.3617021,1.4314977 C15.5719149,1.41926373 15.7902736,1.41926373 16.0668693,1.41926373 L16.9664438,1.41926373 L16.9664438,2.86287307 L18.3768997,2.86287307 C18.5443161,2.86287307 18.6979939,2.86629858 18.8415805,2.86960176 C18.9692401,2.87241557 19.0891185,2.87510705 19.2036474,2.87510705 C20.3642553,2.88685167 21.4032827,3.63557109 21.7880851,4.73846416 C21.8669909,4.93200568 21.9024924,5.14658965 21.9368997,5.35420024 L21.9409119,5.37879054 C21.9542857,5.43457748 21.9629179,5.48363573 21.9714286,5.53281631 C21.9801824,5.58236392 21.9890578,5.63203387 22,5.67913469 L22,20.1739512 C21.9950152,20.1919351 21.9906383,20.2094297 21.988693,20.2286371 C21.9768997,20.2764719 21.9646201,20.3296897 21.9636474,20.3869448 C21.8798784,21.1570736 21.5618237,21.8090223 21.0438906,22.2724454 C20.5117325,22.7483471 19.8375684,23 19.0942249,23 L4.86930091,23 L4.86930091,23 Z M4.90577508,4.2575465 C3.98224924,4.2575465 3.36170213,4.88196871 3.36170213,5.81126164 L3.36170213,20.0149095 C3.36170213,20.9587609 3.9725228,21.5686246 4.91793313,21.5686246 L19.0212766,21.5686246 C19.9665653,21.5686246 20.5775076,20.9587609 20.5775076,20.0149095 L20.5775076,5.79902766 C20.5775076,4.88282509 19.9625532,4.25852522 19.0474164,4.24531252 L17.1854103,4.24531252 C17.1604863,4.24531252 17.1354407,4.24898272 17.1106383,4.25314227 C17.0989666,4.25509971 17.087538,4.2575465 17.0759878,4.2575465 L16.9544073,4.2575465 L16.9544073,7.12029723 L6.97264438,7.12029723 L6.97264438,4.2575465 L4.90577508,4.2575465 Z M8.40729483,5.7256238 L15.5805471,5.7256238 L15.5805471,2.81393716 L14.017386,2.81393716 C13.8525228,1.9663672 13.2331915,1.48569423 12.1758055,1.38305115 C12.0745289,1.37032782 11.9841945,1.37032782 11.8967781,1.37032782 C10.9512462,1.37032782 10.2893617,1.86017628 9.92948328,2.82617114 L8.40729483,2.82617114 L8.40729483,5.7256238 Z M7.11854103,18.656938 C7.00097264,18.656938 6.87951368,18.656938 6.76133739,18.624518 C6.45106383,18.5308057 6.23768997,18.2077063 6.27854103,17.8896229 C6.33142857,17.5283536 6.61191489,17.2744985 6.96036474,17.2744985 L16.9299696,17.2744985 C17.3394529,17.2744985 17.631003,17.510492 17.672462,17.8755539 C17.7027356,18.0794943 17.6464438,18.2803762 17.5184195,18.4306094 C17.3846809,18.575215 17.1831003,18.656938 16.9541641,18.656938 L7.11854103,18.656938 L7.11854103,18.656938 Z M7.03343465,15.0479146 C6.76243161,15.0479146 6.52887538,14.9386652 6.37568389,14.7403524 C6.25848024,14.5629598 6.236231,14.3367535 6.31963526,14.1268185 C6.42504559,13.8405434 6.6268693,13.6861506 6.9206079,13.6651082 L16.893617,13.6654752 C17.3317933,13.6654752 17.6184802,13.8856868 17.6604255,14.2542965 C17.6906991,14.4584816 17.6344073,14.6591188 17.5065046,14.8091074 C17.380304,14.9573832 17.2062006,15.0356807 17.0030395,15.0356807 C16.7928267,15.0479146 16.568997,15.0479146 16.2857143,15.0479146 L7.03343465,15.0479146 Z M9.67173252,11.4633592 C8.97933131,11.4633592 8.03112462,11.4633592 7.08352584,11.4511253 C6.89762918,11.4511253 6.67586626,11.3823703 6.51720365,11.2759347 C6.30370821,11.1223983 6.21908815,10.8337988 6.30978723,10.5600023 C6.40364742,10.2764187 6.6262614,10.1017175 6.92036474,10.0805528 L16.9057751,10.0809198 C17.312462,10.0809198 17.5972036,10.294158 17.6488754,10.6375658 C17.6803647,10.8493359 17.6274772,11.0601273 17.5038298,11.2156212 C17.3845593,11.3557002 17.1991489,11.4404817 16.9848024,11.4513699 C16.7567173,11.4633592 16.5112462,11.4633592 16.2006079,11.4633592 L9.67173252,11.4633592 L9.67173252,11.4633592 Z" id="形状" fill="#FD7727"></path>
                    </g>
                </g>
            </g>
        </g>
    </g>
</svg>