<?xml version="1.0" encoding="UTF-8"?>
<svg width="128px" height="128px" viewBox="0 0 128 128" version="1.1" xmlns="http://www.w3.org/2000/svg" xmlns:xlink="http://www.w3.org/1999/xlink">
    <title>icon/合同管理备份</title>
    <path d="M92,5 C96.2434638,5 100.313126,6.68570945 103.313708,9.6862915 C106.314291,12.6868736 108,16.7565362 108,21 L108,21 L108,49.9927487 C105.512,48.1127487 102.88,46.4487487 100,45.1847487 L100,45.1847487 L100,21 C100,16.581722 96.418278,13 92,13 L92,13 L20,13 C15.581722,13 12,16.581722 12,21 L12,21 L12,101 C12,105.418278 15.581722,109 20,109 L20,109 L55.96,109 C58.2495105,112.032313 60.956306,114.725642 64,117 L64,117 L20,117 C15.7565362,117 11.6868736,115.314291 8.6862915,112.313708 C5.68570945,109.313126 4,105.243464 4,101 L4,101 L4,21 C4,16.7565362 5.68570945,12.6868736 8.6862915,9.6862915 C11.6868736,6.68570945 15.7565362,5 20,5 L20,5 Z M92,53 C109.673112,53 124,67.326888 124,85 C124,102.673112 109.673112,117 92,117 C74.326888,117 60,102.673112 60,85 C60,67.326888 74.326888,53 92,53 Z M92,61.008 C78.7517934,61.008 68.012,71.7477934 68.012,84.996 C68.012,98.2442066 78.7517934,108.984 92,108.984 C105.248207,108.984 115.988,98.2442066 115.988,84.996 C115.988,71.7477934 105.248207,61.008 92,61.008 Z M92,70.8823529 L97.272,80.3468235 L108,82.3872941 L100.528,90.2705882 L101.888,101 L92,96.4145882 L82.112,101 L83.472,90.2705882 L76,82.3872941 L86.728,80.3468235 L92,70.8823529 Z M40,82.6470588 C42.209139,82.6470588 44,84.3325751 44,86.4117647 C44,88.4909544 42.209139,90.1764706 40,90.1764706 L40,90.1764706 L32,90.1764706 C29.790861,90.1764706 28,88.4909544 28,86.4117647 C28,84.3325751 29.790861,82.6470588 32,82.6470588 L32,82.6470588 Z M52,55.8235294 C53.060866,55.8235294 54.0782816,56.2201669 54.8284271,56.9261862 C55.5785726,57.6322055 56,58.5897732 56,59.5882353 C56,60.5866974 55.5785726,61.544265 54.8284271,62.2502844 C54.0782816,62.9563037 53.060866,63.3529412 52,63.3529412 L52,63.3529412 L32,63.3529412 C29.790861,63.3529412 28,61.6674249 28,59.5882353 C28,57.5090456 29.790861,55.8235294 32,55.8235294 L32,55.8235294 Z M80,29 C82.209139,29 84,30.6855162 84,32.7647059 C84,33.763168 83.5785726,34.7207356 82.8284271,35.4267549 C82.0782816,36.1327742 81.060866,36.5294118 80,36.5294118 L80,36.5294118 L32,36.5294118 C29.790861,36.5294118 28,34.8438955 28,32.7647059 C28,30.6855162 29.790861,29 32,29 L32,29 Z" id="形状结合"></path>
</svg>