<?xml version="1.0" encoding="UTF-8"?>
<svg width="16px" height="16px" viewBox="0 0 16 16" version="1.1" xmlns="http://www.w3.org/2000/svg" xmlns:xlink="http://www.w3.org/1999/xlink">
    <title>icon/授信管理</title>
    <g id="页面-1">
        <g id="平台方首页" transform="translate(-45.000000, -309.000000)">
            <g id="编组" transform="translate(41.000000, 305.000000)">
                <rect id="矩形" opacity="0" x="0" y="0" width="24" height="24"></rect>
                <path d="M14.4578494,10.0230947 C14.1517332,10.0230947 13.9035769,10.2712509 13.9035769,10.5773672 C13.9035769,11.6385702 13.0433019,12.4988453 11.9820988,12.4988453 C10.9208958,12.4988453 10.0606208,11.6385702 10.0606208,10.5773672 C10.0606208,10.2712509 9.81246453,10.0230947 9.50634827,10.0230947 C9.20023201,10.0230947 8.95207576,10.2712509 8.95207576,10.5773672 C8.95207576,11.6598902 9.52959488,12.6601827 10.4670873,13.2014442 C11.4045797,13.7427057 12.559618,13.7427057 13.4971104,13.2014442 C14.4346028,12.6601827 15.0121219,11.6598902 15.0121219,10.5773672 C15.0121219,10.2712509 14.7639657,10.0230947 14.4578494,10.0230947 L14.4578494,10.0230947 Z" id="路径"></path>
                <path d="M19.3354476,16.8036951 L17.303115,13.8475751 C19.0297199,11.1640695 18.5115757,7.61808504 16.0893199,5.54081683 C13.6670641,3.46354863 10.0835368,3.49203848 7.6946146,5.60755663 C5.30569241,7.72307478 4.84399287,11.2768493 6.61304575,13.9325635 L4.65461619,16.8036951 C4.54309323,16.962247 4.52250406,17.1675406 4.60031984,17.3450814 C4.67813562,17.5226223 4.84304842,17.6466108 5.03521664,17.6720554 L6.91604804,17.9270208 L7.74745682,19.6859122 C7.83355892,19.8662049 8.01002994,19.9862052 8.20935059,20 L8.24999724,20 C8.43571582,20 8.60912673,19.9071211 8.71189101,19.7524249 L10.755309,16.6706697 C11.5751315,16.8323066 12.4186274,16.8323066 13.2384499,16.6706697 L15.2707824,19.7524249 C15.3735467,19.9071211 15.5469576,20 15.7326762,20 L15.777018,20 C15.977978,19.9847828 16.1548423,19.8616852 16.2389118,19.6785219 L17.0370642,17.9270208 L18.9659325,17.6720554 C19.1548591,17.6426737 19.3153033,17.5179953 19.3904383,17.3421794 C19.4655733,17.1663634 19.4447893,16.964237 19.3354476,16.8073903 L19.3354476,16.8036951 Z M9.57655613,16.4341801 L8.31650995,18.3334873 L7.77701803,17.1879908 C7.69594856,17.0185925 7.53461688,16.9017661 7.34838061,16.8775981 L6.06246837,16.7039261 L7.30773396,14.904388 L7.55900417,15.0743649 C8.05728562,15.5351455 8.62615344,15.9131432 9.24399262,16.1939954 L9.57655613,16.4341801 Z M9.75761847,15.2221709 L8.27955843,14.2281755 C6.28904585,12.3319485 6.08218123,9.2272935 7.8035216,7.083744 C9.52486197,4.94019451 12.6009535,4.47186069 14.8822228,6.00601433 C17.1634922,7.54016797 17.8899486,10.5657153 16.5539443,12.9684033 C15.2179399,15.3710913 12.2645563,16.3504793 9.75761847,15.2221709 L9.75761847,15.2221709 Z M16.6010365,16.8628175 C16.4110358,16.88802 16.247539,17.0095945 16.1687039,17.1842956 L15.6587732,18.2928406 L14.3432998,16.308545 C15.1987285,15.9647481 15.9691221,15.4389639 16.6010365,14.7676674 L17.9202051,16.67806 L16.6010365,16.8628175 Z" id="形状"></path>
            </g>
        </g>
    </g>
</svg>