<?xml version="1.0" encoding="UTF-8"?>
<svg width="14px" height="14px" viewBox="0 0 14 14" version="1.1" xmlns="http://www.w3.org/2000/svg" xmlns:xlink="http://www.w3.org/1999/xlink">
    <title>icon/客户管理</title>
    <g id="页面-1">
        <g id="平台方首页" transform="translate(-46.000000, -196.000000)">
            <g id="编组" transform="translate(41.000000, 191.000000)">
                <rect id="矩形" opacity="0" x="0" y="0" width="24" height="24"></rect>
                <path d="M11.9375,12.715625 C12.45,12.1671875 12.7640625,11.43125 12.7640625,10.6234375 C12.7640625,8.9328125 11.3890625,7.5578125 9.6984375,7.5578125 C8.0078125,7.5578125 6.6328125,8.9328125 6.6328125,10.6234375 C6.6328125,11.434375 6.95,12.171875 7.465625,12.721875 C7.1375,12.9125 6.8328125,13.1484375 6.55625,13.4234375 C5.715625,14.2640625 5.2515625,15.3828125 5.2515625,16.5734375 C5.2515625,17.2953125 5.4296875,17.8078125 5.79375,18.1375 C6.3796875,18.6671875 7.2515625,18.5765625 8.259375,18.4734375 C8.721875,18.4265625 9.2,18.3765625 9.7046875,18.3765625 C10.209375,18.3765625 10.6875,18.425 11.15,18.4734375 C11.54375,18.5140625 11.9171875,18.5515625 12.2609375,18.5515625 C12.796875,18.5515625 13.259375,18.459375 13.615625,18.1359375 C13.98125,17.80625 14.1578125,17.2953125 14.1578125,16.571875 C14.1578125,15.3828125 13.69375,14.2640625 12.853125,13.421875 C12.578125,13.14375 12.26875,12.9078125 11.9375,12.715625 Z M9.6984375,8.5578125 C10.8375,8.5578125 11.7640625,9.484375 11.7640625,10.6234375 C11.7640625,11.7625 10.8375,12.6890625 9.6984375,12.6890625 C8.559375,12.6890625 7.6328125,11.7625 7.6328125,10.6234375 C7.634375,9.484375 8.5609375,8.5578125 9.6984375,8.5578125 Z M12.9484375,17.39375 C12.6921875,17.625 11.99375,17.553125 11.2546875,17.478125 C10.7890625,17.43125 10.2625,17.3765625 9.7078125,17.3765625 C9.153125,17.3765625 8.6265625,17.43125 8.1609375,17.478125 C7.421875,17.553125 6.7234375,17.625 6.4671875,17.39375 C6.3265625,17.265625 6.2546875,16.990625 6.2546875,16.571875 C6.2546875,15.140625 7.13125,13.909375 8.375,13.3859375 C8.7765625,13.5796875 9.2265625,13.6875 9.7015625,13.6875 C10.21875,13.6875 10.70625,13.5578125 11.134375,13.33125 C11.1171875,13.3546875 11.0984375,13.378125 11.078125,13.4 C12.303125,13.93125 13.1625,15.153125 13.1625,16.5703125 C13.1609375,16.9890625 13.0890625,17.265625 12.9484375,17.39375 Z M17.41875,11.2921875 C17.140625,11.0140625 16.83125,10.778125 16.5,10.584375 C17.0203125,10.028125 17.3359375,9.278125 17.3265625,8.45625 C17.321875,8.096875 17.25625,7.753125 17.1375,7.4328125 C17.1375,7.43125 17.1359375,7.4296875 17.1359375,7.4265625 C17.13125,7.415625 17.128125,7.4046875 17.1234375,7.39375 C16.6859375,6.2484375 15.5796875,5.4265625 14.2859375,5.415625 C13.2125,5.40625 12.2640625,5.95 11.7078125,6.78125 C11.4859375,7.1140625 11.7234375,7.559375 12.1234375,7.559375 C12.290625,7.559375 12.4453125,7.4765625 12.5390625,7.3375 C12.61875,7.21875 12.7109375,7.1078125 12.8125,7.0078125 C12.8390625,6.9921875 12.865625,6.9734375 12.890625,6.9515625 C13.265625,6.61875 13.7609375,6.41875 14.303125,6.4296875 C15.1890625,6.446875 15.9421875,7.028125 16.2171875,7.828125 C16.2921875,8.05 16.3296875,8.2890625 16.3234375,8.5359375 C16.296875,9.5921875 15.465625,10.4671875 14.4109375,10.5421875 C14.3609375,10.5453125 14.3109375,10.546875 14.2625,10.5484375 C14.2296875,10.5484375 14.196875,10.5515625 14.165625,10.5578125 C13.9328125,10.5578125 13.7296875,10.721875 13.6828125,10.9515625 C13.6828125,10.9546875 13.68125,10.9578125 13.68125,10.9609375 C13.61875,11.259375 13.8390625,11.54375 14.14375,11.55625 C14.1828125,11.5578125 14.221875,11.5578125 14.2625,11.5578125 C14.7421875,11.5578125 15.1953125,11.446875 15.6,11.25 C16.825,11.78125 17.725,13.0234375 17.725,14.440625 C17.725,14.8578125 17.653125,15.134375 17.5125,15.2625 C17.25625,15.49375 16.5578125,15.421875 15.81875,15.346875 C15.678125,15.3328125 15.371875,15.3046875 15.365625,15.3078125 C15.09375,15.3125 14.875,15.534375 14.875,15.80625 C14.875,16.078125 15.0921875,16.2984375 15.3609375,16.3046875 C15.3625,16.30625 15.6015625,16.3296875 15.715625,16.3421875 C16.109375,16.3828125 16.4828125,16.4203125 16.8265625,16.4203125 C17.3625,16.4203125 17.825,16.328125 18.18125,16.0046875 C18.546875,15.675 18.7234375,15.1640625 18.7234375,14.440625 C18.7234375,13.2515625 18.259375,12.1328125 17.41875,11.2921875 L17.41875,11.2921875 Z" id="形状" stroke-width="0.2"></path>
            </g>
        </g>
    </g>
</svg>