<?xml version="1.0" encoding="UTF-8"?>
<svg width="128px" height="128px" viewBox="0 0 128 128" version="1.1" xmlns="http://www.w3.org/2000/svg">
    <title>icon/首页备份</title>
    <path d="M121.511585,62.5927007 L70.3667109,11.6255766 L66.9385218,8.20753285 C65.310463,6.59748905 62.6896853,6.59748905 61.0616264,8.20753285 L6.48856341,62.5927007 C4.86050454,64.2159416 3.98691197,66.3670657 4,68.6633577 C4.05309323,73.3087299 7.93131478,77.0171095 12.5904751,77.0171095 L18.2158818,77.0171095 L18.2158818,120 L109.784266,120 L109.784266,77.0171095 L115.528799,77.0171095 C117.792198,77.0171095 119.923235,76.1329051 121.524821,74.5360584 C123.126407,72.9392117 124,70.8144818 124,68.557781 C124,66.3142774 123.113171,64.1895474 121.511585,62.5927007 Z M71,111 L56,111 L56,84 L71,84 L71,111 Z M100.271523,67.9105551 L100.271523,111 L79.8874172,111 L79.8874172,80.8360656 C79.8874172,77.9122807 77.5165563,75.5441473 74.589404,75.5441473 L53.397351,75.5441473 C50.4701987,75.5441473 48.0993377,77.9122807 48.0993377,80.8360656 L48.0993377,111 L27.7152318,111 L27.7152318,67.9105551 L15,67.9105551 L64.0066225,19 L67.0662252,22.0560828 L113,67.9105551 L100.271523,67.9105551 Z" id="形状"></path>
</svg>