<?xml version="1.0" encoding="UTF-8"?>
<svg width="15px" height="17px" viewBox="0 0 15 17" version="1.1" xmlns="http://www.w3.org/2000/svg" xmlns:xlink="http://www.w3.org/1999/xlink">
    <title>icon/金融产品管理</title>
    <g id="页面-1">
        <g id="平台方首页" transform="translate(-45.000000, -253.000000)">
            <g id="编组" transform="translate(41.000000, 249.000000)">
                <rect id="矩形" fill-opacity="0" fill="#000000" x="0" y="0" width="24" height="24"></rect>
                <path d="M11.2318631,5.07254444 C11.3979176,4.97581852 11.6018505,4.97581852 11.7679049,5.07254444 L17.7318631,8.55166931 C17.8974636,8.64777902 17.9997911,8.82686912 18,9.02095321 L18,15.979203 C18,16.1728682 17.897941,16.3514181 17.7318631,16.4482507 L11.7683688,19.9273755 C11.602291,20.0242082 11.397941,20.0242082 11.2320951,19.9273755 L5.26813689,16.4484868 C5.10246443,16.3523353 5,16.1731353 5,15.9789668 L5,9.02095321 C5,8.82728799 5.10205902,8.64850192 5.26813689,8.55166931 L11.2316312,5.07278062 L11.2318631,5.07254444 Z M6.11260966,9.02715773 C6.07131751,9.05128252 5.93987082,9.12318845 5.93987082,9.1712038 L5.93987082,15.6239993 C5.93987082,15.6720147 5.98598039,15.7865489 6.02704314,15.8106736 L11.3725417,18.934014 C11.4135577,18.9579165 11.4638899,18.9579165 11.504906,18.934014 L16.8240234,15.8106736 C16.8648567,15.7865489 16.9398708,15.6720147 16.9398708,15.6242335 L16.9398708,9.17096958 C16.9398708,9.12295423 16.8648567,9.0510483 16.8240234,9.02692351 L11.5046766,5.96986773 C11.4636605,5.94596527 11.4133283,5.94596527 11.3723123,5.96986773 L6.11238026,9.02715773 L6.11260966,9.02715773 Z M11.4946651,12.2568157 L15.7315063,9.73397188 C15.9880455,9.58447177 16.2654605,9.5419599 16.4134461,9.80104617 C16.5616636,10.0601325 16.4598366,10.2750536 16.2032973,10.4245537 L11.9578739,12.977392 L11.9578739,17.6763716 C11.9578739,17.9753718 11.7978268,18.1397511 11.5016237,18.1397511 C11.2054205,18.1397511 11.0270492,17.9366388 11.0270492,17.6371662 L11.0270492,12.977392 L6.84494879,10.4824171 C6.83381508,10.4760403 6.77605895,10.3881824 6.7656211,10.3810971 C6.53436463,10.2233308 6.46964993,9.98195783 6.61114085,9.73397188 C6.75935838,9.4748856 7.04976269,9.52731692 7.30607001,9.6770532 L11.4946651,12.2568157 Z" id="形状"></path>
            </g>
        </g>
    </g>
</svg>