<?xml version="1.0" encoding="UTF-8"?>
<svg width="29px" height="31px" viewBox="0 0 29 31" version="1.1" xmlns="http://www.w3.org/2000/svg" xmlns:xlink="http://www.w3.org/1999/xlink">
    <title>图片缩略图</title>
    <g id="切图" stroke="none" stroke-width="1" fill="none" fill-rule="evenodd">
        <g id="Apple-TV" transform="translate(-1598.000000, -639.000000)">
            <g id="图片缩略图" transform="translate(1592.000000, 633.000000)">
                <rect id="矩形" fill-opacity="0" fill="#FFFFFF" x="0" y="0" width="40" height="40"></rect>
                <g id="Group备份-5" transform="translate(6.000000, 6.000000)">
                    <path d="M27.7391304,31 L1.26086957,31 C0.564869565,31 0,30.4658462 0,29.8076923 L0,1.19230769 C0,0.534153846 0.564869565,0 1.26086957,0 L22.6956522,0 L29,5.96153846 L29,29.8076923 C29,30.4658462 28.4351304,31 27.7391304,31" id="Fill-1" fill="#8183F1"></path>
                    <path d="M29,6 L23.4,6 C22.6272,6 22,5.4624 22,4.8 L22,0 L22.4578,0 C25.0135,2.1894 26.4457,3.4176 29,5.607 L29,6 Z" id="Fill-5" fill="#AFB0FF"></path>
                    <circle id="Oval" fill="#FFFFFF" cx="9" cy="12" r="2"></circle>
                    <path d="M10.9166229,27 L24.2182433,27 C24.7705281,27 25.2182433,26.5522847 25.2182433,26 C25.2182433,25.8162067 25.167591,25.6359684 25.0718496,25.4790813 L18.8644267,15.3072539 C18.5767313,14.8358201 17.9613355,14.6868708 17.4899017,14.9745663 C17.37172,15.0466874 17.2698019,15.1425634 17.1906017,15.2561226 L10.0964041,25.42795 C9.78046961,25.8809443 9.89157855,26.5042843 10.3445729,26.8202187 C10.5123767,26.9372512 10.7120386,27 10.9166229,27 Z" id="Path-2" fill="#FFFFFF"></path>
                    <path d="M4.94318932,27 L11.0568107,27 C11.6090954,27 12.0568107,26.5522847 12.0568107,26 C12.0568107,25.791577 11.9916875,25.5883626 11.8705441,25.4187618 L8.81373347,21.1392269 C8.49272448,20.6898143 7.86817439,20.5857226 7.41876181,20.9067316 C7.32896628,20.9708712 7.25040619,21.0494313 7.18626653,21.1392269 L4.12945585,25.4187618 C3.80844686,25.8681744 3.91253854,26.4927245 4.36195113,26.8137335 C4.53155188,26.9348769 4.73476635,27 4.94318932,27 Z" id="Path-2-Copy" fill="#FFFFFF"></path>
                </g>
            </g>
        </g>
    </g>
</svg>