<?xml version="1.0" encoding="UTF-8"?>
<svg width="14px" height="14px" viewBox="0 0 14 14" version="1.1" xmlns="http://www.w3.org/2000/svg" xmlns:xlink="http://www.w3.org/1999/xlink">
    <title>icon/贷后管理</title>
    <g id="页面-1">
        <g id="平台方首页" transform="translate(-46.000000, -478.000000)">
            <g id="形状" transform="translate(41.000000, 473.000000)">
                <path d="M18.2421875,14.9484375 C18.21875,14.8828125 18.146875,14.85 18.08125,14.8734375 L17.125,15.221875 L17.125,6.8125 C17.125,6.225 16.65,5.75 16.0625,5.75 L7.9375,5.75 C7.35,5.75 6.875,6.225 6.875,6.8125 L6.875,15.221875 L5.9171875,14.8734375 C5.903125,14.86875 5.8890625,14.865625 5.875,14.865625 C5.80625,14.865625 5.75,14.921875 5.75,14.990625 L5.75,15.921875 C5.75,15.9734375 5.7828125,16.0203125 5.8328125,16.0390625 L11.828125,18.2203125 C11.9390625,18.2609375 12.059375,18.2609375 12.1703125,18.2203125 L18.1671875,16.040625 C18.2171875,16.021875 18.25,15.975 18.25,15.9234375 L18.25,14.9921875 C18.25,14.9765625 18.246875,14.9625 18.2421875,14.9484375 Z M12,17.0859375 L8,15.63125 L8,6.875 L16,6.875 L16,15.63125 L12,17.0859375 Z M14.321875,8.875 L13.4703125,8.875 C13.4234375,8.875 13.3796875,8.9015625 13.359375,8.94375 L12.0359375,11.58125 L11.984375,11.58125 L10.6609375,8.94375 C10.6390625,8.9015625 10.596875,8.875 10.55,8.875 L9.6796875,8.875 C9.659375,8.875 9.6390625,8.8796875 9.6203125,8.890625 C9.559375,8.9234375 9.5375,9 9.5703125,9.059375 L11.19375,12.053125 L10.303125,12.053125 C10.234375,12.053125 10.178125,12.109375 10.178125,12.178125 L10.178125,12.6015625 C10.178125,12.6703125 10.234375,12.7265625 10.303125,12.7265625 L11.490625,12.7265625 L11.490625,13.3359375 L10.303125,13.3359375 C10.234375,13.3359375 10.178125,13.3921875 10.178125,13.4609375 L10.178125,13.884375 C10.178125,13.953125 10.234375,14.009375 10.303125,14.009375 L11.490625,14.009375 L11.490625,15 C11.490625,15.06875 11.546875,15.125 11.615625,15.125 L12.3953125,15.125 C12.4640625,15.125 12.5203125,15.06875 12.5203125,15 L12.5203125,14.0078125 L13.7125,14.0078125 C13.78125,14.0078125 13.8375,13.9515625 13.8375,13.8828125 L13.8375,13.459375 C13.8375,13.390625 13.78125,13.334375 13.7125,13.334375 L12.5203125,13.334375 L12.5203125,12.725 L13.7125,12.725 C13.78125,12.725 13.8375,12.66875 13.8375,12.6 L13.8375,12.1765625 C13.8375,12.1078125 13.78125,12.0515625 13.7125,12.0515625 L12.8125,12.0515625 L14.4328125,9.0578125 C14.4421875,9.0390625 14.4484375,9.01875 14.4484375,8.9984375 C14.446875,8.93125 14.390625,8.875 14.321875,8.875 Z"></path>
            </g>
        </g>
    </g>
</svg>