<?xml version="1.0" encoding="UTF-8"?>
<svg width="16px" height="16px" viewBox="0 0 16 16" version="1.1" xmlns="http://www.w3.org/2000/svg" xmlns:xlink="http://www.w3.org/1999/xlink">
    <title>icon/用款管理</title>
    <g id="页面-1">
        <g id="平台方首页" transform="translate(-45.000000, -421.000000)">
            <g id="编组" transform="translate(41.000000, 417.000000)">
                <rect id="矩形" opacity="0" x="5" y="4" width="15" height="15"></rect>
                <path d="M16,5 C16.530433,5 17.0391408,5.21071368 17.4142136,5.58578644 C17.7892863,5.96085919 18,6.46956702 18,7 L18,7 L18,10.6240936 C17.689,10.3890936 17.36,10.1810936 17,10.0230936 L17,10.0230936 L17,7 C17,6.44771525 16.5522847,6 16,6 L16,6 L7,6 C6.44771525,6 6,6.44771525 6,7 L6,7 L6,17 C6,17.5522847 6.44771525,18 7,18 L7,18 L11.495,18 C11.7811888,18.3790391 12.1195383,18.7157052 12.5,19 L12.5,19 L7,19 C6.46956702,19 5.96085919,18.7892863 5.58578644,18.4142136 C5.21071368,18.0391408 5,17.530433 5,17 L5,17 L5,7 C5,6.46956702 5.21071368,5.96085919 5.58578644,5.58578644 C5.96085919,5.21071368 6.46956702,5 7,5 L7,5 Z M9.5,14.7058824 C9.77614237,14.7058824 10,14.9165719 10,15.1764706 C10,15.4363693 9.77614237,15.6470588 9.5,15.6470588 L9.5,15.6470588 L8.5,15.6470588 C8.22385763,15.6470588 8,15.4363693 8,15.1764706 C8,14.9165719 8.22385763,14.7058824 8.5,14.7058824 L8.5,14.7058824 Z M11,11.3529412 C11.1326082,11.3529412 11.2597852,11.4025209 11.3535534,11.4907733 C11.4473216,11.5790257 11.5,11.6987217 11.5,11.8235294 C11.5,11.9483372 11.4473216,12.0680331 11.3535534,12.1562855 C11.2597852,12.244538 11.1326082,12.2941176 11,12.2941176 L11,12.2941176 L8.5,12.2941176 C8.22385763,12.2941176 8,12.0834281 8,11.8235294 C8,11.5636307 8.22385763,11.3529412 8.5,11.3529412 L8.5,11.3529412 Z M14.5,8 C14.7761424,8 15,8.21068953 15,8.47058824 C15,8.595396 14.9473216,8.71509195 14.8535534,8.80334437 C14.7597852,8.89159678 14.6326082,8.94117647 14.5,8.94117647 L14.5,8.94117647 L8.5,8.94117647 C8.22385763,8.94117647 8,8.73048694 8,8.47058824 C8,8.21068953 8.22385763,8 8.5,8 L8.5,8 Z" id="形状结合"></path>
                <path d="M16,11 C13.790861,11 12,12.790861 12,15 C12,17.209139 13.790861,19 16,19 C18.209139,19 20,17.209139 20,15 C20,12.790861 18.209139,11 16,11 Z M16,17.998 C14.3439742,17.998 13.0015,16.6555258 13.0015,14.9995 C13.0015,13.3434742 14.3439742,12.001 16,12.001 C17.6560258,12.001 18.9985,13.3434742 18.9985,14.9995 C18.9985,16.6555258 17.6560258,17.998 16,17.998 L16,17.998 Z" id="形状"></path>
                <path d="M17.4224073,13 L16.9003332,13 C16.8715951,13 16.844773,13.0162849 16.8323198,13.0421491 L16.0209495,14.6591421 L15.9893377,14.6591421 L15.1779674,13.0421491 C15.1645563,13.0162849 15.1386921,13 15.1099541,13 L14.5763847,13 C14.5639316,13 14.5514784,13.0028738 14.5399832,13.0095793 C14.5026238,13.029696 14.4892127,13.0766347 14.5093293,13.1130362 L15.504623,14.9484382 L14.9586005,14.9484382 C14.9164514,14.9484382 14.8819657,14.9829239 14.8819657,15.025073 L14.8819657,15.2846731 C14.8819657,15.3268222 14.9164514,15.3613079 14.9586005,15.3613079 L15.6866305,15.3613079 L15.6866305,15.7349022 L14.9586005,15.7349022 C14.9164514,15.7349022 14.8819657,15.7693879 14.8819657,15.811537 L14.8819657,16.0711371 C14.8819657,16.1132862 14.9164514,16.1477719 14.9586005,16.1477719 L15.6866305,16.1477719 L15.6866305,16.7551022 C15.6866305,16.7972513 15.7211161,16.8317369 15.7632652,16.8317369 L16.2412744,16.8317369 C16.2834235,16.8317369 16.3179092,16.7972513 16.3179092,16.7551022 L16.3179092,16.1468139 L17.048813,16.1468139 C17.0909621,16.1468139 17.1254477,16.1123283 17.1254477,16.0701792 L17.1254477,15.810579 C17.1254477,15.7684299 17.0909621,15.7339443 17.048813,15.7339443 L16.3179092,15.7339443 L16.3179092,15.3603499 L17.048813,15.3603499 C17.0909621,15.3603499 17.1254477,15.3258643 17.1254477,15.2837152 L17.1254477,15.024115 C17.1254477,14.9819659 17.0909621,14.9474803 17.048813,14.9474803 L16.4970429,14.9474803 L17.4904207,13.1120783 C17.4961683,13.1005831 17.5,13.0881299 17.5,13.0756768 C17.4990421,13.0344856 17.4645564,13 17.4224073,13 Z" id="路径"></path>
            </g>
        </g>
    </g>
</svg>