<?xml version="1.0" encoding="UTF-8"?>
<svg width="128px" height="128px" viewBox="0 0 128 128" version="1.1" xmlns="http://www.w3.org/2000/svg" xmlns:xlink="http://www.w3.org/1999/xlink">
    <title>icon/成员单位管理备份</title>
    <path d="M122.770833,103.954545 L17.0625,103.954545 L17.0625,8.22727273 C17.0625,7.55227273 16.509375,7 15.8333333,7 L7.22916667,7 C6.553125,7 6,7.55227273 6,8.22727273 L6,113.772727 C6,114.447727 6.553125,115 7.22916667,115 L122.770833,115 C123.446875,115 124,114.447727 124,113.772727 L124,105.181818 C124,104.506818 123.446875,103.954545 122.770833,103.954545 Z M30.2222222,91 L38.7777778,91 C39.45,91 40,90.4375 40,89.75 L40,67.25 C40,66.5625 39.45,66 38.7777778,66 L30.2222222,66 C29.55,66 29,66.5625 29,67.25 L29,89.75 C29,90.4375 29.55,91 30.2222222,91 Z M54.2222222,91 L62.7777778,91 C63.45,91 64,90.4428571 64,89.7619048 L64,40.2380952 C64,39.5571429 63.45,39 62.7777778,39 L54.2222222,39 C53.55,39 53,39.5571429 53,40.2380952 L53,89.7619048 C53,90.4428571 53.55,91 54.2222222,91 Z M77.2222222,91 L85.7777778,91 C86.45,91 87,90.4418605 87,89.7596899 L87,52.2403101 C87,51.5581395 86.45,51 85.7777778,51 L77.2222222,51 C76.55,51 76,51.5581395 76,52.2403101 L76,89.7596899 C76,90.4418605 76.55,91 77.2222222,91 Z M100.222222,91 L108.777778,91 C109.45,91 110,90.4461538 110,89.7692308 L110,28.2307692 C110,27.5538462 109.45,27 108.777778,27 L100.222222,27 C99.55,27 99,27.5538462 99,28.2307692 L99,89.7692308 C99,90.4461538 99.55,91 100.222222,91 Z" id="形状"></path>
</svg>