<?xml version="1.0" encoding="UTF-8"?>
<svg width="158px" height="187px" viewBox="0 0 158 187" version="1.1" xmlns="http://www.w3.org/2000/svg" xmlns:xlink="http://www.w3.org/1999/xlink">
    <title>编组 4备份</title>
    <g id="页面-1" stroke="none" stroke-width="1" fill="none" fill-rule="evenodd">
        <g id="成员单位-首页备份-2" transform="translate(-973.000000, -886.000000)">
            <g id="编组-4备份" transform="translate(973.000000, 886.000000)">
                <g id="编组-3" opacity="0.498767671">
                    <rect id="矩形" fill="#000000" fill-rule="nonzero" opacity="0" x="5" y="4" width="140" height="140"></rect>
                    <g id="编组-2" fill="#999999">
                        <path d="M105.903456,57.0018485 C110.320934,57.0018485 114.291351,59.6946844 115.9214,63.7970537 L123.999345,84.1288245 L123.999345,116.231054 C123.999345,122.178578 119.173969,127 113.221567,127 L37.7771225,127 C31.8247203,127 26.9993448,122.178578 26.9993448,116.231054 L26.9993448,84.5541978 L35.0988447,63.8508984 C36.7145449,59.7200511 40.6996079,57.0018485 45.1383448,57.0018485 L105.903456,57.0018485 L105.903456,57.0018485 Z M56.8322337,86.6164511 L32.3882337,86.6164511 L32.3882337,116.231054 C32.3882337,118.960846 34.4333553,121.25845 37.1466225,121.577836 L37.7771225,121.615527 L113.221567,121.615527 C115.953598,121.615167 118.253086,119.572081 118.572734,116.861037 L118.610456,116.231054 L118.610456,86.6164511 L94.166456,86.6164511 C92.8253723,95.8868227 84.8737413,102.766083 75.4993448,102.766083 C66.1249484,102.766083 58.1733173,95.8868227 56.8322337,86.6164511 L56.8322337,86.6164511 Z M105.903456,62.3863217 L45.1383448,62.3863217 C43.1578164,62.3863217 41.3368735,63.4717614 40.3961225,65.2131702 L40.1159003,65.8108466 L34.0803448,81.2319779 L58.7506781,81.2319779 L58.7452893,81.2965916 C59.542918,81.1227126 60.3764761,81.3180472 61.0135623,81.8281347 C61.6506485,82.3382222 62.0231175,83.1085018 62.0271227,83.9242144 C62.0271227,91.3586205 68.058842,97.3853974 75.4993448,97.3853974 C82.9398477,97.3853974 88.971567,91.3586205 88.971567,83.9242144 C88.9700417,82.4843842 90.1025806,81.2982094 91.5420671,81.2319779 L117.047678,81.2319779 L110.915123,65.7839243 C110.188294,63.9522893 108.518239,62.6636007 106.5609,62.424013 L105.903456,62.3863217 L105.903456,62.3863217 Z M78.0536782,22.0027725 C79.3550534,22.0023393 80.470764,22.9313363 80.7050114,24.2104068 L80.7481272,24.6950093 L80.7481272,45.9206027 C80.7506914,47.3151221 79.687095,48.4807808 78.2971384,48.6067824 C76.9071817,48.732784 75.6509958,47.777417 75.4023448,46.4052052 L75.3592337,45.9206027 L75.3592337,24.6950093 C75.3592337,23.2081281 76.5655776,22.0027725 78.0536782,22.0027725 L78.0536782,22.0027725 Z M45.0090114,22.7296767 L45.3323448,23.0958208 L61.0194003,44.3214141 C61.8344194,45.4417331 61.6657556,46.9971214 60.6294988,47.91702 C59.593242,48.8369186 58.027547,48.8211428 57.0100671,47.8805509 L56.6867337,47.5197913 L40.9996781,26.2941979 C40.171602,25.1744155 40.3346268,23.608498 41.3756349,22.6829837 C42.416643,21.7574694 43.9921706,21.7777167 45.0090114,22.7296767 L45.0090114,22.7296767 Z M114.725067,22.5250666 C115.773444,23.2959116 116.120432,24.705388 115.549567,25.874209 L115.296289,26.2888134 L99.6577338,47.5144067 C98.8318809,48.6385556 97.2836183,48.9465403 96.0898423,48.2241417 C94.8960663,47.501743 94.4519505,45.9880954 95.0664004,44.7360186 L95.3142893,44.3214141 L110.958234,23.1012053 C111.38135,22.5241172 112.016936,22.1390182 112.72468,22.0309232 C113.432424,21.9228282 114.154123,22.1006263 114.730456,22.5250666 L114.725067,22.5250666 Z" id="形状" fill-rule="nonzero"></path>
                        <path d="M38.6757557,144.431283 L23.3375029,144.431283 C22.790645,144.433493 22.2655417,144.21724 21.8788516,143.83055 C21.4921615,143.44386 21.2759085,142.918757 21.278119,142.371899 C21.278119,141.22688 22.1938734,140.312532 23.3375029,140.312532 L38.6757557,140.312532 C39.8207748,140.312532 40.7365122,141.22688 40.7365122,142.371899 C40.7365122,143.516918 39.5914931,144.431283 38.6757557,144.431283 Z M126.913093,144.431283 L121.303333,144.431283 C120.756475,144.433493 120.231372,144.21724 119.844682,143.83055 C119.457992,143.44386 119.241739,142.918757 119.243949,142.371899 C119.243949,141.22688 120.158314,140.312532 121.303333,140.312532 L126.913093,140.312532 C128.058112,140.312532 128.973849,141.22688 128.973849,142.371899 C128.973849,143.516918 127.83022,144.431283 126.913093,144.431283 L126.913093,144.431283 Z M111.505361,144.431266 L46.7033956,144.431266 C45.5583765,144.431266 44.6426391,143.514139 44.6426391,142.371899 C44.6426391,141.22688 45.5583765,140.312532 46.7033956,140.312532 L111.505361,140.312532 C112.65038,140.312532 113.564727,141.22688 113.564727,142.371899 C113.564727,143.516918 112.879661,144.431266 111.505361,144.431266 Z" id="形状" fill-rule="nonzero"></path>
                        <path d="M150.079088,61.9998718 L154.051909,61.9998718 C155.171653,61.9998718 156.078832,62.8883333 156.078832,64.0003846 C156.078832,65.1038462 155.172422,66.0001282 154.051909,66.0001282 L150.078832,66.0001282 L150.078832,69.9737179 C150.078832,71.0935897 149.19037,72 148.078319,72 C147.544292,71.9967125 147.033458,71.7813513 146.658262,71.4013214 C146.283065,71.0212914 146.074259,70.5077432 146.077806,69.9737179 L146.077806,66.0001282 L142.104986,66.0001282 C141.570593,66.0049083 141.056332,65.7965023 140.676033,65.42104 C140.295734,65.0455776 140.080763,64.5340261 140.078704,63.9996154 C140.078704,62.8961538 140.985114,61.9998718 142.104986,61.9998718 L146.078576,61.9998718 L146.078576,58.0270513 C146.077935,56.9065385 146.966396,56 148.078447,56 C149.181781,56 150.078063,56.9064103 150.078063,58.0270513 L150.078063,61.9998718 L150.079088,61.9998718 Z" id="路径" transform="translate(148.078768, 64.000000) rotate(-15.000000) translate(-148.078768, -64.000000) "></path>
                        <path d="M12.5789322,15.4999038 L15.5585237,15.4999038 C16.3983246,15.4999038 17.0787038,16.16625 17.0787038,17.0002885 C17.0787038,17.8278846 16.3989016,18.5000962 15.5585237,18.5000962 L12.5787399,18.5000962 L12.5787399,21.4802885 C12.5787399,22.3201923 11.912399,23 11.0783673,23 C10.6778503,22.9975344 10.294728,22.8360135 10.0133326,22.550991 C9.73193713,22.2659686 9.5753341,21.8808074 9.57799468,21.4802885 L9.57799468,18.5000962 L6.59840317,18.5000962 C6.19761138,18.5036812 5.8119188,18.3473767 5.52669702,18.06578 C5.24147525,17.7841832 5.08024853,17.4005196 5.07870381,16.9997115 C5.07870381,16.1721154 5.75850605,15.4999038 6.59840317,15.4999038 L9.5785716,15.4999038 L9.5785716,12.5202885 C9.57809083,11.6799038 10.2444316,11 11.0784634,11 C11.9059568,11 12.5781629,11.6798077 12.5781629,12.5202885 L12.5781629,15.4999038 L12.5789322,15.4999038 Z" id="路径备份" transform="translate(11.078704, 17.000000) rotate(62.000000) translate(-11.078704, -17.000000) "></path>
                        <path d="M8.07883201,70.6670513 C12.4970371,70.6670513 16.0784474,74.2484615 16.0784474,78.666665 C16.0784474,83.0848718 12.4970371,86.6670513 8.07883201,86.6670513 C5.20201532,86.6952611 2.53157347,85.1766695 1.08496006,82.6898684 C-0.361653354,80.2030673 -0.361653354,77.1310353 1.08496006,74.6442342 C2.53157347,72.1574331 5.20201532,70.6388414 8.07883201,70.6670513 Z M8.05893123,74.6672444 C6.62754094,74.6531402 5.29883461,75.4123994 4.57905695,76.6557399 C3.85927928,77.8990804 3.85927928,79.4350222 4.57905695,80.6783627 C5.29883461,81.9217032 6.62754094,82.6809624 8.05893123,82.6668581 C10.2572555,82.6668581 12.0392237,80.8758549 12.0392237,78.666859 C12.0392237,76.4578631 10.2572555,74.6672444 8.05893123,74.6672444 Z" id="形状结合"></path>
                        <path d="M91.0190524,0.00019313988 C93.2173766,0.00019313988 94.9993448,1.7908118 94.9993448,3.9998077 C94.9993448,6.2088036 93.2173766,7.99980686 91.0190524,7.99980686 C89.5876621,8.0139111 88.2589557,7.25465193 87.5391781,6.01131142 C86.8194004,4.7679709 86.8194004,3.2320291 87.5391781,1.98868858 C88.2589557,0.745348071 89.5876621,-0.0139111029 91.0190524,0.00019313988 Z M91.0091986,2.00009657 C90.2935035,1.99304445 89.6291503,2.37267404 89.2692615,2.99434429 C88.9093726,3.61601455 88.9093726,4.38398545 89.2692615,5.00565571 C89.6291503,5.62732596 90.2935035,6.00695555 91.0091986,5.99990343 C92.1083607,5.99990343 92.9993448,5.1044018 92.9993448,3.99990385 C92.9993448,2.8954059 92.1083607,2.00009657 91.0091986,2.00009657 Z" id="形状结合备份"></path>
                    </g>
                </g>
                <text id="暂无数据" font-family="PingFangSC-Regular, PingFang SC" font-size="16" font-weight="normal" fill="#CDCDCD">
                    <tspan x="27" y="182">暂无数据</tspan>
                </text>
            </g>
        </g>
    </g>
</svg>