<?xml version="1.0" encoding="UTF-8"?>
<svg width="14px" height="16px" viewBox="0 0 14 16" version="1.1" xmlns="http://www.w3.org/2000/svg" xmlns:xlink="http://www.w3.org/1999/xlink">
    <title>icon/订单管理</title>
    <g id="页面-1">
        <g id="平台方首页" transform="translate(-46.000000, -365.000000)" fill-rule="nonzero">
            <g id="编组" transform="translate(41.000000, 361.000000)">
                <rect id="矩形" opacity="0" x="0" y="0" width="24" height="24"></rect>
                <path d="M12.0005645,5.08995978 C12.8094264,5.08995978 13.507091,5.44612997 13.8880971,5.96712058 L13.8880971,5.96712058 L15.0683694,5.96712058 L15.0683694,6.84428137 L16.3835462,6.84428137 C17.3527129,6.84428137 18.1361744,7.62830734 18.1361744,8.59690961 L18.1361744,8.59690961 L18.1361744,17.364002 C18.1361744,18.3309109 17.3521484,19.1166302 16.3835462,19.1166302 L16.3835462,19.1166302 L7.61645383,19.1166302 C6.64898045,19.1166302 5.86382558,18.3314753 5.86382558,17.364002 L5.86382558,17.364002 L5.86382558,8.59690961 C5.86382558,7.62830734 6.64898047,6.84428137 7.61645383,6.84428137 L7.61645383,6.84428137 L8.93163056,6.84428137 L8.93163056,5.96712058 L10.1130318,5.96712058 C10.4923446,5.44556552 11.1917025,5.08995978 12.0005645,5.08995978 Z M8.93163056,7.71974881 L7.61645383,7.71974881 C7.13271712,7.71974881 6.74098637,8.11317292 6.74098637,8.59690961 L6.74098637,8.59690961 L6.74098637,17.364002 C6.74098637,17.8477387 7.13271714,18.2411628 7.61645383,18.2411628 L7.61645383,18.2411628 L16.3835462,18.2411628 C16.8672829,18.2411628 17.260707,17.8477387 17.260707,17.364002 L17.260707,17.364002 L17.260707,8.59690961 C17.260707,8.11317292 16.8672829,7.71974881 16.3835462,7.71974881 L16.3835462,7.71974881 L15.0683694,7.71974881 L15.0683694,9.47407042 L8.93163056,9.47407042 L8.93163056,7.71974881 Z M15.0683694,15.6096804 C15.3099555,15.6096804 15.5063854,15.8072391 15.5063854,16.0488252 C15.5063854,16.2907348 15.310279,16.4868412 15.0683694,16.4868412 L8.93163056,16.4868412 C8.68948,16.4868412 8.49361462,16.2909758 8.49361462,16.0488252 C8.49361462,15.8066747 8.68948,15.6096804 8.93163056,15.6096804 L15.0683694,15.6096804 Z M15.0683694,13.4184717 C15.310279,13.4184717 15.5063854,13.6145782 15.5063854,13.8564877 C15.5063854,14.0986382 15.31052,14.2945036 15.0683694,14.2945036 L8.93163056,14.2945036 C8.68948,14.2945036 8.49361462,14.0986383 8.49361462,13.8564877 C8.49361462,13.6145782 8.68972104,13.4184717 8.93163056,13.4184717 L15.0683694,13.4184717 Z M15.0683694,11.2266987 C15.310279,11.2266987 15.5063854,11.4228051 15.5063854,11.6647146 C15.5063854,11.9079941 15.31052,12.1038595 15.0683694,12.1038595 L8.93163056,12.1038595 C8.68948,12.1038595 8.49361462,11.9079941 8.49361462,11.6647146 C8.49361462,11.4228051 8.68972104,11.2266987 8.93163056,11.2266987 L15.0683694,11.2266987 Z M12.0005645,5.96712058 C11.3277358,5.96712058 10.7830382,6.35885133 10.7830382,6.84428137 L10.7830382,6.84428137 L9.80822691,6.84428137 L9.80822691,8.59690961 L14.1912086,8.59690961 L14.1912086,6.84428137 L13.2180907,6.84428137 C13.2180907,6.35885133 12.6716997,5.96712058 12.0005645,5.96712058 Z" id="形状结合"></path>
            </g>
        </g>
    </g>
</svg>