<?xml version="1.0" encoding="UTF-8"?>
<svg width="17px" height="18px" viewBox="0 0 17 18" version="1.1" xmlns="http://www.w3.org/2000/svg" xmlns:xlink="http://www.w3.org/1999/xlink">
    <title>协议管理</title>
    <g id="pc" stroke="none" stroke-width="1" fill-rule="evenodd">
        <g id="流程配置-配置备份" transform="translate(-45.000000, -432.000000)">
            <g id="协议管理" transform="translate(45.500000, 432.500000)">
                <path d="M2.5,0 L9.55137019,0.0995769988 C10.3088443,0.0995769988 10.8677885,0.51784498 11.5,1.03342188 C11.9214743,1.37713981 12.9050836,2.39158582 14.4508278,4.07675988 C14.8082646,4.52148727 15.0028239,5.0751001 15.0022629,5.64566398 L15.0022629,5.64566398 L15.0030959,8.93232123 C14.582001,8.51880188 14.0880215,8.17925256 13.542199,7.93471493 L13.5449964,5.87939566 C13.5452332,5.56151007 13.436836,5.25306864 13.2376926,5.00529195 C11.6310632,3.22690677 10.718499,2.23295397 10.5,2.02343355 C10.1722515,1.70915293 9.79084242,1.5062971 9.41433482,1.50314855 C9.4067286,1.50308393 9.39734589,1.50302029 9.38618667,1.50295763 L9.08556058,1.50209116 C9.05663632,1.50203829 9.02593556,1.5019864 8.9934583,1.50193549 L8.05028973,1.50101027 C7.99294142,1.50097307 7.9338166,1.50093684 7.87291528,1.50090159 L4.59707646,1.50002337 C4.48998605,1.50001358 4.38111913,1.50000477 4.27047571,1.49999694 L2.8574825,1.49994994 C2.08822874,1.49994994 1.46462535,2.12360338 1.46462535,2.89285714 L1.46462535,2.89285714 L1.46462535,13.1071429 C1.46462535,13.8763966 2.08822874,14.5 2.8574825,14.5 L2.8574825,14.5 L6.91627634,14.5005324 C7.16168675,15.062038 7.50724931,15.5697613 7.93038252,16.0011206 L2.5,16 C1.11928813,16 0,14.8807119 0,13.5 L0,13.5 L0,2.5 C0,1.11928813 1.11928813,0 2.5,0 L2.5,0 Z" id="形状结合" fill-rule="nonzero"></path>
                <rect id="矩形" x="2.5" y="4.5" width="8" height="1.5" rx="0.75"></rect>
                <rect id="矩形备份-6" x="2.5" y="8.5" width="5" height="1.5" rx="0.75"></rect>
                <path d="M11.5,8 C9.01471863,8 7,10.0147186 7,12.5 C7,14.9852814 9.01471863,17 11.5,17 C13.9852814,17 16,14.9852814 16,12.5 C16,10.0147186 13.9852814,8 11.5,8 Z M11.5,9.5 C13.1568542,9.5 14.5,10.8431458 14.5,12.5 C14.5,14.1568542 13.1568542,15.5 11.5,15.5 C9.84314575,15.5 8.5,14.1568542 8.5,12.5 C8.5,10.8431458 9.84314575,9.5 11.5,9.5 Z" id="椭圆形" fill-rule="nonzero"></path>
                <path d="M11.252435,13.6734568 C10.8782211,13.9505535 10.6345347,14.0479945 10.5213758,13.9657797 C10.4082089,13.8835592 10.425588,13.6216576 10.573513,13.1800749 L10.5734368,13.1800494 C10.6432937,12.9715138 10.5686635,12.7418177 10.3895765,12.6141661 C10.0104034,12.3438951 9.84242825,12.1422465 9.8856511,12.0092203 C9.92887699,11.8761846 10.1833306,11.8117811 10.649012,11.8160096 L10.6490128,11.8159291 C10.8689289,11.817926 11.0643209,11.6759684 11.1303838,11.4662 C11.2702559,11.0220667 11.4101279,10.8 11.55,10.8 C11.6898819,10.8 11.8297639,11.022098 11.9696458,11.466294 L11.9697225,11.4662699 C12.0357812,11.6760396 12.2311703,11.8180011 12.4510865,11.8160087 C12.9167052,11.8117902 13.1711261,11.876194 13.2143489,12.0092203 C13.2575748,12.1422559 13.0895729,12.3439236 12.7103433,12.6142233 L12.71039,12.6142888 C12.5313004,12.7419367 12.4566655,12.9716314 12.5265183,13.1801684 C12.6744144,13.6216945 12.6917831,13.883565 12.5786242,13.9657797 C12.4654573,14.0480003 12.2217445,13.9505398 11.8474858,13.6733982 L11.847438,13.6734628 C11.6706958,13.5425838 11.4291798,13.5425814 11.252435,13.6734568 Z" id="星形"></path>
            </g>
        </g>
    </g>
</svg>