<?xml version="1.0" encoding="UTF-8"?>
<svg width="14px" height="12px" viewBox="0 0 14 12" version="1.1" xmlns="http://www.w3.org/2000/svg" xmlns:xlink="http://www.w3.org/1999/xlink">
    <title>报表</title>
    <g id="页面-1" stroke="none" stroke-width="1" fill="none" fill-rule="evenodd">
        <g id="用款审批列表-审批详情备份-2" transform="translate(-46.000000, -500.000000)" fill="#555555" fill-rule="nonzero">
            <g id="报表" transform="translate(46.003797, 500.042815)">
                <path d="M8.27801684,8.22911577 L8.27801684,3.04111407 C8.27801684,2.54732499 7.8777217,2.14702985 7.38393262,2.14702985 C6.89014354,2.14702985 6.4898484,2.54732499 6.4898484,3.04111407 L6.4898484,8.22911577 C6.4898484,8.72290485 6.89014354,9.12319999 7.38393262,9.12319999 C7.8777217,9.12319999 8.27801684,8.72290485 8.27801684,8.22911577 Z M13.0987625,10.2970245 L1.73771132,10.2936398 L1.73771132,10.2936398 L1.73637839,0.881315837 C1.73631021,0.399877591 1.34996115,0.00755673997 0.868580576,0.000104493476 C0.396738075,-0.00720009428 0.00831261404,0.36938229 0.00100802628,0.84122479 C0.000939780226,0.845633169 0.000905655666,0.85004201 0.000905655666,0.854450917 L0.000905655666,11.000115 L0.000905655666,11.000115 C-0.0212970829,11.5007272 0.367440109,11.9245619 0.86930849,11.9469225 C0.905704251,11.9469225 0.940644182,11.9447442 0.923174216,11.9403878 C0.96320955,11.9454703 1.00324488,11.9469225 1.04400813,11.9469225 L13.0987625,11.9469225 C13.5543014,11.9469225 13.9235886,11.5776352 13.9235886,11.1220964 C13.9235886,10.6665177 13.5543411,10.2971602 13.0987625,10.2970245 Z M4.77166189,8.22933467 L4.77166189,6.60255934 C4.77166189,6.1106018 4.3733835,5.71151049 3.88142698,5.71050738 C3.39076531,5.70950691 2.99219439,6.10645575 2.99119392,6.59711743 C2.99119269,6.59772126 2.99119207,6.5983251 2.99119207,6.59892893 L2.99119207,8.22933467 C2.99119207,8.72099784 3.38976382,9.11956958 3.88142698,9.11956958 C4.37309015,9.11956958 4.77166189,8.72099784 4.77166189,8.22933467 Z M11.7716013,8.23187061 L11.7716013,5.01259435 C11.7716013,4.5218997 11.3745948,4.12370135 10.8839023,4.12223049 C10.3951071,4.12076531 9.9976725,4.51582437 9.99620732,5.0046196 C9.99620467,5.00550391 9.99620335,5.00638823 9.99620335,5.00727254 L9.99620335,8.23187061 C9.99620335,8.72213322 10.3936397,9.11956958 10.8839023,9.11956958 C11.3741649,9.11956958 11.7716013,8.72213322 11.7716013,8.23187061 Z" id="形状"></path>
            </g>
        </g>
    </g>
</svg>