<?xml version="1.0" encoding="UTF-8"?>
<svg width="16px" height="16px" viewBox="0 0 16 16" version="1.1" xmlns="http://www.w3.org/2000/svg" xmlns:xlink="http://www.w3.org/1999/xlink">
    <title>统计报表</title>
    <g id="移动端" stroke="none" stroke-width="1" fill-rule="evenodd">
        <g id="统计报表" fill-rule="nonzero">
            <rect id="矩形" fill-opacity="0" x="0" y="0" width="16" height="16"></rect>
            <path d="M7.42857142,1.14285714 C3.32534286,1.14285714 0,4.46874286 0,8.57142858 C0,12.6741143 3.32534286,16 7.42857142,16 C11.5312571,16 14.8571428,12.6741143 14.8571428,8.57142858 L7.42857142,8.57142858 L7.42857142,1.14285714 Z M13.6104857,9.71428572 C13.0714286,12.6367143 10.5044571,14.8571429 7.42857142,14.8571429 C3.9626,14.8571429 1.14285714,12.0374 1.14285714,8.57142858 C1.14285714,5.49554286 3.36328572,2.92857144 6.28571428,2.3898 L6.28571428,8.57142858 L6.28571428,9.71428572 L7.42857142,9.71428572 L13.6104857,9.71428572 Z M8.57142858,0 L8.57142858,7.42857142 L16,7.42857142 C16,3.32588572 12.6741143,0 8.57142858,0 Z M9.71428572,1.24694286 C12.2661714,1.71734286 14.2823714,3.73408572 14.7533429,6.28571428 L9.71428572,6.28571428 L9.71428572,1.24694286 Z" id="形状"></path>
        </g>
    </g>
</svg>