<?xml version="1.0" encoding="UTF-8"?>
<svg width="16px" height="16px" viewBox="0 0 16 16" version="1.1" xmlns="http://www.w3.org/2000/svg" xmlns:xlink="http://www.w3.org/1999/xlink">
    <title>icon/统计备份</title>
    <g id="页面-1" stroke="none" stroke-width="1" fill="none" fill-rule="evenodd">
        <g id="编组-13" transform="translate(-4.000000, -4.000000)">
            <rect id="矩形" fill-opacity="0" fill="#FFFFFF" x="0" y="0" width="24" height="24"></rect>
            <path d="M16.2053551,17.8164958 C16.5949462,17.8252069 16.9062296,18.1435282 16.9062296,18.5332167 C16.9062296,18.8904311 16.6446651,19.1876773 16.2966821,19.2414955 L16.1997667,19.25 L7.79441152,19.2499375 C7.40482045,19.2412265 7.09353704,18.9229051 7.09353704,18.5332167 C7.09353704,18.1760023 7.35510157,17.878756 7.70308454,17.8249378 L7.8,17.8164333 L16.2053551,17.8164958 Z M16.6666667,4.75 C18.0314887,4.75 19.1566524,5.74901222 19.2444818,7.01713574 L19.25,7.177 L19.25,14.9560219 C19.2479958,16.2452542 18.177524,17.2955256 16.8355381,17.3774846 L16.6664333,17.3826334 L7.33337871,17.3826334 C5.96984337,17.3828808 4.84345406,16.383456 4.75552458,15.115683 L4.75,14.9558667 L4.75,7.17723334 C4.75,5.88827492 5.82172086,4.83717842 7.16438094,4.75515303 L7.33356666,4.75 L16.6666667,4.75 Z M16.6666667,6.18333334 L7.33333334,6.18356666 C6.73550352,6.18356666 6.25184492,6.57787687 6.19001413,7.07031651 L6.18333334,7.17723334 L6.18333334,14.9556333 C6.18333334,15.4604453 6.62722099,15.8885357 7.20710346,15.9433708 L7.33333334,15.9493 L16.6659667,15.9493 C17.2638953,15.9493 17.7476718,15.5548854 17.8095178,15.0625293 L17.8162005,14.9556333 L17.8162005,7.17706331 C17.8165681,6.63637203 17.3069215,6.18333334 16.6666667,6.18333334 Z" id="形状" fill="#555555" fill-rule="nonzero"></path>
            <path d="M9.7,11 L9.7,14 L8.2,14 L8.2,11 L9.7,11 Z M12.7,9 L12.7,14 L11.2,14 L11.2,9 L12.7,9 Z M15.7,8 L15.7,14 L14.2,14 L14.2,8 L15.7,8 Z" id="形状结合" fill="#555555"></path>
        </g>
    </g>
</svg>