<?xml version="1.0" encoding="UTF-8"?>
<svg width="128px" height="128px" viewBox="0 0 128 128" version="1.1" xmlns="http://www.w3.org/2000/svg">
    <title>icon/系统管理备份</title>
    <path d="M64.4995309,41 C51.5418795,41 41,51.3186355 41,64.0006555 C41,76.6825444 51.5418795,87 64.4993969,87 C77.4581205,87 88,76.6825444 88,64.0006555 C87.9986598,51.3175867 77.4569143,41 64.4993969,41 L64.4995309,41 Z M64.0001315,79 C55.7288896,79 49,72.2710452 49,64 C49,55.7289548 55.7288896,49 64.0001315,49 C72.2711104,49 79,55.7289548 79,64 C79,72.2710452 72.2711104,79 64.0001315,79 Z M120.007631,73.3209417 L112.470634,68.9815314 C112.639773,67.3263676 112.724654,65.6637256 112.724951,64 C112.724951,62.3391368 112.639338,60.670204 112.470634,59.0184686 L120.007631,54.6790583 C122.865911,53.0331435 123.849465,49.3747466 122.199059,46.5243587 L108.276261,22.4756413 C106.625722,19.6252534 102.957238,18.6455359 100.098958,20.2902601 L92.5619607,24.6298027 C89.8578738,22.6739291 86.958434,21.0014688 83.909738,19.6390112 L83.909738,10.9693184 C83.909738,7.67748879 81.224808,5 77.922668,5 L50.0770718,5 C46.7761264,5 44.0911964,7.67867937 44.0911964,10.9693184 L44.0911964,19.6402018 C41.0427644,21.0031733 38.1433762,22.6756039 35.4389737,24.6309933 L27.9007819,20.2914507 C25.0425022,18.6455359 21.3740182,19.6252534 19.7234791,22.4768318 L5.8008137,46.5242265 C4.15027463,49.3746143 5.13382867,53.0330112 7.99224112,54.678926 L15.5291056,59.0183363 C15.3600361,60.6735485 15.2751993,62.3362333 15.2749212,64 C15.2749212,65.6596726 15.3605342,67.329796 15.5292383,68.9815314 L7.99210839,73.3209417 C5.13382867,74.9668565 4.15027463,78.6252534 5.80068096,81.4766996 L19.7234791,105.524359 C21.3740182,108.375937 25.0425022,109.355655 27.9007819,107.70974 L35.4389737,103.370197 C38.1435215,105.325031 41.0428926,106.997053 44.0911964,108.359798 L44.0911964,117.030682 C44.0911964,120.322511 46.7761264,123 50.0770718,123 L77.922668,123 C81.2236134,123 83.909738,120.321321 83.909738,117.030682 L83.909738,108.359798 C86.9579101,106.996796 89.8572554,105.324789 92.5619607,103.370197 L100.098958,107.70974 C102.958432,109.355655 106.626916,108.375937 108.276261,105.524359 L122.199059,81.4766996 C123.849465,78.6252534 122.867106,74.9681794 120.007631,73.3209417 L120.007631,73.3209417 Z M103.006078,100.54301 L95.9751358,96.5202074 C93.8259452,95.2919885 91.1720809,95.4646223 89.2125091,96.9622766 C86.3091044,99.1806671 83.1267311,101.006181 79.7524752,102.384745 C77.4681279,103.318999 75.9909922,105.509562 75.9909922,107.964681 L75.9909922,116 L52.006611,116 L52.006611,107.964813 C52.006611,105.509562 50.5308068,103.318999 48.2463264,102.384877 C44.8720705,101.004994 41.6896971,99.1806671 38.7862924,96.9622766 C36.8267206,95.4646223 34.1715248,95.2908015 32.0236658,96.5202074 L24.9928564,100.54301 L13,79.9563303 L20.0285457,75.9347145 C22.1717441,74.7087375 23.3474073,72.3480461 23.0250287,69.920886 C22.7856975,68.1234767 22.6657738,66.3124441 22.6660313,64.4994725 C22.6660313,62.6880704 22.7872063,60.8637439 23.0250287,59.0780589 C23.3486057,56.650767 22.1728094,54.2912625 20.0285457,53.0642305 L13,49.0424827 L24.9928564,28.4556709 L32.0236658,32.4786056 C34.1715248,33.7080115 36.8255222,33.5341908 38.7862924,32.0365365 C41.6896971,29.818146 44.8720705,27.9938195 48.2463264,26.6140679 C50.5308068,25.6798143 52.0078094,23.489251 52.0078094,21.0341319 L52.0078094,13 L75.993389,13 L75.993389,21.034 C75.993389,23.489251 77.4691932,25.6798143 79.7548721,26.613936 C83.1369944,27.9981182 86.3182269,29.8216373 89.214906,32.0365365 C91.1744778,33.5330038 93.8284752,33.7068246 95.9763342,32.4786056 L103.007144,28.4558028 L115,49.0424827 L107.971454,53.0642305 C105.827057,54.2912625 104.652593,56.6519539 104.974971,59.0792458 C105.214335,60.8766078 105.334259,62.6875987 105.333969,64.5005275 C105.333969,66.3119296 105.213859,68.1350691 104.974971,69.9219411 C104.651394,72.349233 105.827191,74.7099245 107.971454,75.9357695 L115,79.9575173 L103.006078,100.54301 Z" id="形状"></path>
</svg>