<?xml version="1.0" encoding="UTF-8"?>
<svg width="16px" height="17px" viewBox="0 0 16 17" version="1.1" xmlns="http://www.w3.org/2000/svg" xmlns:xlink="http://www.w3.org/1999/xlink">
    <title>消息</title>
    <g id="控件" stroke="none" stroke-width="1" fill="none" fill-rule="evenodd">
        <g id="核心企业头部" transform="translate(-288.000000, -13.000000)" fill-rule="nonzero">
            <g id="编组-3" transform="translate(288.000000, 10.500000)">
                <g id="消息" transform="translate(0.000000, 3.000000)">
                    <rect id="矩形" fill="#000000" opacity="0" x="0" y="0" width="16" height="16"></rect>
                    <path d="M14.125,2.246875 C14.35625,2.246875 14.5765625,2.3390625 14.7421875,2.5046875 C14.9078125,2.671875 15,2.890625 15,3.121875 L15,10.390625 C15,10.621875 14.9078125,10.8421875 14.7421875,11.0078125 C14.5765625,11.1734375 14.35625,11.265625 14.125,11.265625 L9.01875,11.265625 C8.83125,11.265625 8.6484375,11.315625 8.4859375,11.409375 L8.4484375,11.43125 L8.4125,11.45625 L5.8453125,13.25625 L5.8453125,12.328125 C5.8453125,11.7421875 5.36875,11.265625 4.7828125,11.265625 L1.875,11.265625 C1.64375,11.265625 1.4234375,11.1734375 1.2578125,11.0078125 C1.0921875,10.840625 1,10.621875 1,10.390625 L1,3.121875 C1,2.890625 1.0921875,2.6703125 1.2578125,2.5046875 C1.4234375,2.3390625 1.64375,2.246875 1.875,2.246875 L14.125,2.246875 M14.125,1.246875 L1.875,1.246875 C0.84375,1.246875 0,2.090625 0,3.121875 L0,10.390625 C0,11.421875 0.84375,12.265625 1.875,12.265625 L4.7828125,12.265625 C4.8171875,12.265625 4.8453125,12.29375 4.8453125,12.328125 L4.8453125,14.2828125 C4.8453125,14.5546875 5.06875,14.7515625 5.3140625,14.7515625 C5.384375,14.7515625 5.4578125,14.734375 5.528125,14.7 L8.9875,12.2734375 C8.996875,12.2671875 9.0078125,12.265625 9.01875,12.265625 L14.125,12.265625 C15.15625,12.265625 16,11.421875 16,10.390625 L16,3.121875 C16,2.090625 15.15625,1.246875 14.125,1.246875 Z" id="形状" fill="#3C4956"></path>
                    <path d="M7,7 C7,7.53847763 7.44771525,7.975 8,7.975 C8.55228475,7.975 9,7.53847763 9,7 C9,6.46152237 8.55228475,6.025 8,6.025 C7.44771525,6.025 7,6.46152237 7,7 L7,7 Z M3.33125,7 C3.33125,7.53847763 3.77896525,7.975 4.33125,7.975 C4.88353475,7.975 5.33125,7.53847763 5.33125,7 C5.33125,6.46152237 4.88353475,6.025 4.33125,6.025 C3.77896525,6.025 3.33125,6.46152237 3.33125,7 L3.33125,7 Z M10.6640625,7 C10.6640625,7.53847763 11.1117778,7.975 11.6640625,7.975 C12.2163472,7.975 12.6640625,7.53847763 12.6640625,7 C12.6640625,6.46152237 12.2163472,6.025 11.6640625,6.025 C11.1117778,6.025 10.6640625,6.46152237 10.6640625,7 L10.6640625,7 Z" id="形状" fill="#3C4956"></path>
                </g>
            </g>
        </g>
    </g>
</svg>