<?xml version="1.0" encoding="UTF-8"?>
<svg width="16px" height="16px" viewBox="0 0 16 16" version="1.1" xmlns="http://www.w3.org/2000/svg" xmlns:xlink="http://www.w3.org/1999/xlink">
    <title>提示</title>
    <g id="页面-1" stroke="none" stroke-width="1" fill="none" fill-rule="evenodd">
        <g id="登陆" transform="translate(-244.000000, -149.000000)" fill-rule="nonzero">
            <g id="编组" transform="translate(224.000000, 131.000000)">
                <g id="提示" transform="translate(20.000000, 18.000000)">
                    <rect id="矩形" fill="#000000" opacity="0" x="0" y="0" width="16" height="16"></rect>
                    <path d="M8.5,12.3333334 L10.1433333,12.3333334 C10.2353808,12.3333334 10.31,12.2587141 10.31,12.1666667 L10.31,12.161 L10.2595,10.6875 C10.2535398,10.5139143 10.3380903,10.3496717 10.4828333,10.2536667 C11.7333333,9.42483333 12.5,8.028 12.5,6.5 C12.5,4.01466667 10.4853333,2 8,2 C5.51466667,2 3.5,4.01466667 3.5,6.5 C3.5,8.02833333 4.26716667,9.4255 5.51783333,10.2541667 C5.65260812,10.3434037 5.73592945,10.4922893 5.7415,10.6538333 L5.79366667,12.1723333 C5.79672255,12.2621605 5.87045419,12.3333334 5.96033333,12.3333334 L7.5,12.3333334 L7.5,8.94833333 L6.3025,7.676 C6.18007699,7.54589578 6.13636324,7.36036263 6.1878253,7.18928909 C6.23928735,7.01821554 6.3781069,6.88759175 6.55199196,6.84662242 C6.72587702,6.8056531 6.90841032,6.86056245 7.03083333,6.99066667 L8.02083333,8.04266667 L9.15666667,6.96983333 C9.35742218,6.78021557 9.67388224,6.78924449 9.8635,6.99 C10.0531178,7.19075551 10.0440888,7.50721557 9.84333333,7.69683333 L8.5,8.9655 L8.5,12.3333334 Z M13.4999984,6.5 C13.5013645,8.24555223 12.6729555,9.88783132 11.2683333,10.9241667 L11.3095,12.1266667 C11.3203476,12.4428699 11.202306,12.7499196 10.9824355,12.977426 C10.7625651,13.2049323 10.4597226,13.3333333 10.1433333,13.3333333 L5.96,13.3333333 C5.33122946,13.3333333 4.81555786,12.8350675 4.794,12.2066667 L4.7505,10.938 C3.33485634,9.90277162 2.49865614,8.25377963 2.49999838,6.5 C2.49999838,3.4625 4.9625,1 7.99999838,1 C11.0375,1 13.4999984,3.4625 13.4999984,6.5 Z M6.5,15 C6.22385763,15 6,14.7761424 6,14.5 C6,14.2238576 6.22385763,14 6.5,14 L9.5,14 C9.77614237,14 10,14.2238576 10,14.5 C10,14.7761424 9.77614237,15 9.5,15 L6.5,15 Z" id="形状" fill="#3E495B"></path>
                </g>
            </g>
        </g>
    </g>
</svg>