<?xml version="1.0" encoding="UTF-8"?>
<svg width="30px" height="30px" viewBox="0 0 30 30" version="1.1" xmlns="http://www.w3.org/2000/svg" xmlns:xlink="http://www.w3.org/1999/xlink">
    <title>exel备份 4</title>
    <g id="版本2" stroke="none" stroke-width="1" fill="none" fill-rule="evenodd">
        <g id="还款指引" transform="translate(-16.000000, -389.000000)" fill-rule="nonzero">
            <g id="exel备份-4" transform="translate(16.000000, 389.000000)">
                <rect id="矩形" fill="#000000" opacity="0" x="0" y="0" width="30" height="30"></rect>
                <path d="M5.38,1 C5.034816,1 4.666816,1.14 4.414,1.42 C4.160816,1.7 4,2.05018667 4,2.4 L4,27.6 C4,27.9501867 4.138,28.32352 4.414,28.58 C4.69,28.86 5.035184,29 5.38,29 L25.62,29 C25.965184,29 26.333184,28.86 26.586,28.58 C26.862,28.3 27,27.9498133 27,27.6 L27,8.93333333 L19.18,1 L5.38,1 Z" id="路径" fill="#FC5A5A"></path>
                <path d="M8.496,20 L8.496,17.808 L9.912,17.808 C11.304,17.808 12,17.216 12,16.04 C12,14.872 11.304,14.288 9.928,14.288 L7.56,14.288 L7.56,20 L8.496,20 Z M9.856,17.008 L8.496,17.008 L8.496,15.088 L9.856,15.088 C10.264,15.088 10.568,15.16 10.76,15.312 C10.952,15.456 11.056,15.696 11.056,16.04 C11.056,16.384 10.96,16.632 10.768,16.784 C10.576,16.928 10.272,17.008 9.856,17.008 Z M14.888,20 C15.816,20 16.512,19.744 16.992,19.232 C17.448,18.744 17.68,18.048 17.68,17.144 C17.68,16.232 17.448,15.536 16.992,15.056 C16.512,14.544 15.816,14.288 14.888,14.288 L12.8,14.288 L12.8,20 L14.888,20 Z M14.712,19.2 L13.736,19.2 L13.736,15.088 L14.712,15.088 C15.424,15.088 15.944,15.248 16.272,15.576 C16.592,15.896 16.752,16.424 16.752,17.144 C16.752,17.848 16.592,18.368 16.272,18.704 C15.944,19.032 15.424,19.2 14.712,19.2 Z M19.496,20 L19.496,17.472 L22.288,17.472 L22.288,16.672 L19.496,16.672 L19.496,15.088 L22.456,15.088 L22.456,14.288 L18.56,14.288 L18.56,20 L19.496,20 Z" id="PDF" fill="#FFFFFF"></path>
                <path d="M27,9 L20.4117647,9 C20.0586353,9 19.6821647,8.85882353 19.4235294,8.57647059 C19.1411765,8.31745882 19,7.94098824 19,7.58823529 L19,1 L27,9 Z" id="路径" fill-opacity="0.492226767" fill="#FFFFFF"></path>
            </g>
        </g>
    </g>
</svg>